<?xml version="1.0" encoding="UTF-8"?>
<!DOCTYPE svg PUBLIC "-//W3C//DTD SVG 1.1//EN" "http://www.w3.org/Graphics/SVG/1.1/DTD/svg11.dtd">
<svg xmlns="http://www.w3.org/2000/svg" version="1.1" width="512px" height="512px" style="shape-rendering:geometricPrecision; text-rendering:geometricPrecision; image-rendering:optimizeQuality; fill-rule:evenodd; clip-rule:evenodd" xmlns:xlink="http://www.w3.org/1999/xlink">
<g><path style="opacity:0.999" fill="#111827" d="M 40.5,-0.5 C 183.833,-0.5 327.167,-0.5 470.5,-0.5C 491.833,5.5 505.5,19.1667 511.5,40.5C 511.5,183.833 511.5,327.167 511.5,470.5C 505.5,491.833 491.833,505.5 470.5,511.5C 327.167,511.5 183.833,511.5 40.5,511.5C 19.1667,505.5 5.5,491.833 -0.5,470.5C -0.5,327.167 -0.5,183.833 -0.5,40.5C 5.5,19.1667 19.1667,5.5 40.5,-0.5 Z"/></g>
<g><path style="opacity:1" fill="#fcfcfc" d="M 240.5,281.5 C 241.468,279.393 241.802,277.059 241.5,274.5C 225.167,274.5 208.833,274.5 192.5,274.5C 192.5,267.833 192.5,261.167 192.5,254.5C 216.5,254.5 240.5,254.5 264.5,254.5C 267.771,281.153 261.938,305.486 247,327.5C 223.524,353.219 194.357,363.719 159.5,359C 113.446,352.282 84.2793,326.448 72,281.5C 64.4673,246.484 71.4673,214.818 93,186.5C 121.444,156.798 155.944,145.965 196.5,154C 220.099,159.953 239.099,172.619 253.5,192C 247.63,196.857 241.463,201.357 235,205.5C 216.756,181.847 192.589,171.347 162.5,174C 124.173,181.326 101.673,204.16 95,242.5C 90.558,275.078 100.725,301.911 125.5,323C 149.464,338.544 175.131,341.878 202.5,333C 224.96,323.043 237.627,305.876 240.5,281.5 Z"/></g>
<g><path style="opacity:1" fill="#a4a4a4" d="M 377.5,155.5 C 352.5,155.5 327.5,155.5 302.5,155.5C 302.5,222.5 302.5,289.5 302.5,356.5C 301.501,289.335 301.168,222.002 301.5,154.5C 327.005,154.169 352.339,154.502 377.5,155.5 Z"/></g>
<g><path style="opacity:1" fill="#fbfbfb" d="M 377.5,155.5 C 408.356,159.322 427.189,176.322 434,206.5C 436.221,238.272 422.721,260.439 393.5,273C 409.833,300.667 426.167,328.333 442.5,356C 433.255,356.817 424.089,356.65 415,355.5C 399.833,329.667 384.667,303.833 369.5,278C 355.171,277.5 340.837,277.333 326.5,277.5C 326.5,303.833 326.5,330.167 326.5,356.5C 318.5,356.5 310.5,356.5 302.5,356.5C 302.5,289.5 302.5,222.5 302.5,155.5C 327.5,155.5 352.5,155.5 377.5,155.5 Z"/></g>
<g><path style="opacity:1" fill="#111827" d="M 326.5,177.5 C 343.17,177.333 359.837,177.5 376.5,178C 402.542,184.581 413.042,201.081 408,227.5C 403.215,242.483 393.049,251.316 377.5,254C 360.503,254.5 343.503,254.667 326.5,254.5C 326.5,228.833 326.5,203.167 326.5,177.5 Z"/></g>
<g><path style="opacity:1" fill="#d2d2d2" d="M 264.5,254.5 C 240.5,254.5 216.5,254.5 192.5,254.5C 192.5,261.167 192.5,267.833 192.5,274.5C 192.167,274.5 191.833,274.5 191.5,274.5C 191.5,267.5 191.5,260.5 191.5,253.5C 216.006,253.169 240.339,253.502 264.5,254.5 Z"/></g>
<g><path style="opacity:1" fill="#434343" d="M 191.5,274.5 C 191.833,274.5 192.167,274.5 192.5,274.5C 208.833,274.5 225.167,274.5 241.5,274.5C 241.802,277.059 241.468,279.393 240.5,281.5C 240.5,279.5 240.5,277.5 240.5,275.5C 223.991,275.83 207.658,275.496 191.5,274.5 Z"/></g>
</svg>
