<?xml version="1.0" encoding="UTF-8"?>
<!DOCTYPE svg PUBLIC "-//W3C//DTD SVG 1.1//EN" "http://www.w3.org/Graphics/SVG/1.1/DTD/svg11.dtd">
<svg xmlns="http://www.w3.org/2000/svg" version="1.1" width="512px" height="512px" style="shape-rendering:geometricPrecision; text-rendering:geometricPrecision; image-rendering:optimizeQuality; fill-rule:evenodd; clip-rule:evenodd" xmlns:xlink="http://www.w3.org/1999/xlink">
<g><path style="opacity:0.999" fill="#000000" d="M 40.5,-0.5 C 183.833,-0.5 327.167,-0.5 470.5,-0.5C 491.833,5.5 505.5,19.1667 511.5,40.5C 511.5,183.833 511.5,327.167 511.5,470.5C 505.5,491.833 491.833,505.5 470.5,511.5C 327.167,511.5 183.833,511.5 40.5,511.5C 19.1667,505.5 5.5,491.833 -0.5,470.5C -0.5,327.167 -0.5,183.833 -0.5,40.5C 5.5,19.1667 19.1667,5.5 40.5,-0.5 Z"/></g>
<g><path style="opacity:1" fill="#f6f6f6" d="M 136.5,144.5 C 144.125,145.665 151.792,146.831 159.5,148C 166.619,151.711 173.952,155.044 181.5,158C 187.858,164.571 193.358,171.738 198,179.5C 199.684,181.351 201.517,183.018 203.5,184.5C 212.158,174.845 217.324,163.512 219,150.5C 220.113,149.289 221.28,149.289 222.5,150.5C 224.186,153.738 225.186,157.238 225.5,161C 224.884,178.732 223.551,196.398 221.5,214C 223.039,220.612 222.706,227.112 220.5,233.5C 219.349,234.731 218.183,234.731 217,233.5C 215.465,228.631 214.465,223.631 214,218.5C 213.07,215.638 211.403,213.305 209,211.5C 208.199,206.227 206.533,201.227 204,196.5C 202.89,194.963 201.39,194.297 199.5,194.5C 199.84,190.869 199.006,187.536 197,184.5C 191.559,176.393 185.392,168.893 178.5,162C 172.333,159.722 166.333,157.055 160.5,154C 152.491,150.61 144.157,149.276 135.5,150C 129.57,153.883 123.403,157.383 117,160.5C 114.728,164.441 112.062,168.107 109,171.5C 106.758,178.246 103.758,184.579 100,190.5C 99.8853,195.776 98.7186,200.776 96.5,205.5C 96.6972,207.682 97.3639,209.682 98.5,211.5C 98.0609,213.104 97.3943,214.604 96.5,216C 97.1667,217.333 97.8333,218.667 98.5,220C 95.7817,222.941 94.2817,226.441 94,230.5C 93.5819,234.178 93.0819,237.845 92.5,241.5C 92.9306,243.754 93.5972,245.921 94.5,248C 93.3595,250.163 92.6928,252.496 92.5,255C 94.6526,272.548 96.3193,290.048 97.5,307.5C 100.579,307.74 103.579,307.407 106.5,306.5C 107.386,307.325 107.719,308.325 107.5,309.5C 106.178,309.67 105.011,309.337 104,308.5C 103.941,311.732 103.441,315.066 102.5,318.5C 102.299,322.768 104.132,325.768 108,327.5C 109.192,338.594 114.359,347.76 123.5,355C 126.757,355.749 129.424,357.416 131.5,360C 144.701,362.162 156.701,359.162 167.5,351C 169.912,345.686 173.412,341.186 178,337.5C 179.536,333.654 180.369,329.654 180.5,325.5C 178.052,325.915 176.719,324.915 176.5,322.5C 179.977,316.38 181.977,309.714 182.5,302.5C 174.437,304.941 172.604,302.607 177,295.5C 178.709,293.825 180.376,292.158 182,290.5C 181.267,286.188 181.434,281.854 182.5,277.5C 180.833,277.5 179.167,277.5 177.5,277.5C 177.215,275.712 177.548,274.045 178.5,272.5C 179.833,271.833 180.833,270.833 181.5,269.5C 173.679,268.212 172.679,265.045 178.5,260C 178.355,259.228 178.022,258.561 177.5,258C 167.774,257.915 158.107,257.748 148.5,257.5C 148.421,256.07 148.754,254.736 149.5,253.5C 159.817,252.668 170.151,252.168 180.5,252C 206.74,248.984 233.073,248.317 259.5,250C 262.003,251.549 262.003,253.216 259.5,255C 254.167,255.333 248.833,255.667 243.5,256C 239.841,258.833 235.841,261.166 231.5,263C 228.781,265.382 226.447,268.049 224.5,271C 224.613,272.28 225.28,273.113 226.5,273.5C 228.662,271.98 230.995,270.98 233.5,270.5C 232.647,274.36 230.313,277.027 226.5,278.5C 225.913,280.273 225.58,282.106 225.5,284C 226.029,289.914 226.029,295.914 225.5,302C 225.624,306.617 226.291,311.117 227.5,315.5C 226.033,318.998 225.367,322.664 225.5,326.5C 226.349,339.152 226.682,351.819 226.5,364.5C 224.856,364.714 223.356,364.38 222,363.5C 221.209,358.126 220.209,352.793 219,347.5C 201.099,332.452 185.599,334.619 172.5,354C 169.198,355.982 166.198,358.315 163.5,361C 154.891,362.588 146.391,364.421 138,366.5C 135.833,366.333 133.667,366.167 131.5,366C 128.21,364.501 124.876,363.334 121.5,362.5C 117.182,363.369 112.849,363.536 108.5,363C 105.277,360.459 101.61,358.959 97.5,358.5C 90.0215,352.263 81.6881,347.929 72.5,345.5C 73.2551,339.675 70.9218,335.675 65.5,333.5C 55.8707,321.496 49.5373,307.829 46.5,292.5C 44.1791,290.046 43.8458,287.213 45.5,284C 44.5,282.333 43.5,280.667 42.5,279C 43.4543,277.092 44.121,275.092 44.5,273C 43.207,268.828 43.207,264.661 44.5,260.5C 43.3859,258.215 42.0526,256.048 40.5,254C 42.0238,252.806 43.1904,251.306 44,249.5C 44.7114,246.266 45.5447,243.099 46.5,240C 45.5697,238.806 44.9031,237.473 44.5,236C 47.0984,232.134 49.4317,228.134 51.5,224C 49.9926,223.163 49.4926,221.996 50,220.5C 56.9169,212.343 62.5835,203.343 67,193.5C 75.3827,185.619 83.216,177.286 90.5,168.5C 93.6657,167.766 96.6657,166.6 99.5,165C 103.277,160.621 107.61,156.954 112.5,154C 120.297,150.106 128.297,146.939 136.5,144.5 Z"/></g>
<g><path style="opacity:1" fill="#f0f0f0" d="M 294.5,169.5 C 294.719,168.325 294.386,167.325 293.5,166.5C 292.893,166.624 292.56,166.957 292.5,167.5C 291.448,167.649 290.448,167.483 289.5,167C 293.625,163.548 292.958,161.215 287.5,160C 288.711,159.107 288.711,158.274 287.5,157.5C 286.5,157 285.5,156.5 284.5,156C 277.989,155.633 271.489,155.133 265,154.5C 261.412,155.841 258.079,155.507 255,153.5C 254.506,151.866 254.34,150.199 254.5,148.5C 283.829,148.996 313.163,149.329 342.5,149.5C 358.394,149.252 374.228,148.252 390,146.5C 398.261,147.974 406.428,149.808 414.5,152C 420.661,155.264 427.328,157.264 434.5,158C 441.762,165.586 448.595,173.419 455,181.5C 461.048,199.216 458.048,215.216 446,229.5C 440.969,234.922 435.469,239.755 429.5,244C 420.385,246.526 411.385,249.192 402.5,252C 407.406,253.476 412.406,254.476 417.5,255C 423.45,259.791 429.284,264.624 435,269.5C 437.283,274.628 438.949,279.962 440,285.5C 440.002,299.866 441.002,314.2 443,328.5C 443.652,334.16 446.318,338.494 451,341.5C 449.436,345.366 450.769,347.699 455,348.5C 455.772,348.355 456.439,348.022 457,347.5C 457.996,342.024 458.829,336.524 459.5,331C 458.594,327.573 457.927,324.073 457.5,320.5C 457.295,317.205 458.128,314.205 460,311.5C 463.525,309.81 466.525,310.476 469,313.5C 471.982,329.27 468.149,343.104 457.5,355C 453.247,356.958 449.414,359.458 446,362.5C 444.699,362.96 443.366,363.294 442,363.5C 438.826,362.23 435.659,362.23 432.5,363.5C 429.387,362.444 426.387,361.111 423.5,359.5C 416.045,353.855 410.211,346.855 406,338.5C 404.076,328.102 401.91,317.769 399.5,307.5C 400.896,306.148 401.563,304.481 401.5,302.5C 400.835,297.519 400.335,292.519 400,287.5C 398.842,287.002 398.009,286.169 397.5,285C 398.641,282.551 399.641,280.051 400.5,277.5C 400.167,276.833 399.833,276.167 399.5,275.5C 398.369,276.751 397.036,277.751 395.5,278.5C 394.833,278.167 394.167,277.833 393.5,277.5C 394.934,275.78 395.767,273.78 396,271.5C 400.795,267.746 399.962,266.08 393.5,266.5C 393.663,264.143 393.497,261.81 393,259.5C 389.453,257.142 385.62,255.476 381.5,254.5C 377.918,255.194 374.418,256.194 371,257.5C 360.676,254.989 350.176,254.156 339.5,255C 337.75,256.754 337.083,258.921 337.5,261.5C 339.167,261.5 340.833,261.5 342.5,261.5C 340.552,265.396 338.552,269.396 336.5,273.5C 336.922,275.663 338.256,276.997 340.5,277.5C 339.826,279.517 338.659,281.183 337,282.5C 336.51,283.793 336.343,285.127 336.5,286.5C 337.978,286.238 339.311,286.571 340.5,287.5C 339.333,289.167 338.167,290.833 337,292.5C 335.955,299.713 336.455,306.713 338.5,313.5C 336.931,317.235 337.265,320.735 339.5,324C 333.815,337.316 337.482,347.316 350.5,354C 360.809,355.015 371.143,355.681 381.5,356C 383.689,356.677 384.022,357.844 382.5,359.5C 358.817,360.186 335.15,360.853 311.5,361.5C 291.852,358.75 272.185,358.417 252.5,360.5C 250.167,360.333 247.833,360.167 245.5,360C 244.594,358.301 244.261,356.467 244.5,354.5C 256.914,354.563 268.914,352.396 280.5,348C 286.226,346.273 288.726,342.44 288,336.5C 289,335.5 290,334.5 291,333.5C 291.428,316.158 291.095,298.824 290,281.5C 286.667,279.5 286.667,277.5 290,275.5C 291.933,253.341 293.766,231.174 295.5,209C 295.577,206.949 295.077,205.116 294,203.5C 292.556,205.155 290.722,205.822 288.5,205.5C 288.572,201.251 290.739,198.584 295,197.5C 295.738,194.097 295.238,190.93 293.5,188C 294.869,184.988 295.536,181.821 295.5,178.5C 292.072,177.765 291.906,176.098 295,173.5C 295.765,171.934 295.598,170.601 294.5,169.5 Z"/></g>
<g><path style="opacity:1" fill="#101010" d="M 298.5,153.5 C 302.182,153.335 305.848,153.501 309.5,154C 307.114,154.284 306.448,155.284 307.5,157C 306.552,157.483 305.552,157.649 304.5,157.5C 304.351,158.552 304.517,159.552 305,160.5C 314.752,153.439 325.585,151.606 337.5,155C 333.529,158.642 328.862,160.975 323.5,162C 323.018,163.008 322.852,164.175 323,165.5C 317.742,168.798 313.076,172.798 309,177.5C 305.779,179.53 302.279,180.53 298.5,180.5C 298.343,179.127 298.51,177.793 299,176.5C 301.938,174.267 303.438,171.6 303.5,168.5C 302.15,169.95 300.484,170.617 298.5,170.5C 298.297,168.61 298.963,167.11 300.5,166C 299.027,165.29 298.36,164.124 298.5,162.5C 300.484,162.617 302.15,161.95 303.5,160.5C 301.716,159.394 299.882,159.394 298,160.5C 296.338,159.003 294.838,157.337 293.5,155.5C 295.291,154.83 296.958,154.163 298.5,153.5 Z"/></g>
<g><path style="opacity:1" fill="#010101" d="M 339.5,179.5 C 338.539,177.735 338.205,175.735 338.5,173.5C 339.3,171.318 340.8,169.651 343,168.5C 343.483,167.552 343.649,166.552 343.5,165.5C 341.833,165.5 340.167,165.5 338.5,165.5C 338.143,161.336 339.81,158.169 343.5,156C 359.07,152.706 374.736,152.706 390.5,156C 392.405,157.87 394.572,159.37 397,160.5C 397.741,163.112 396.741,164.778 394,165.5C 393.517,166.448 393.351,167.448 393.5,168.5C 396.106,167.864 398.606,167.864 401,168.5C 401.743,170.441 401.576,172.274 400.5,174C 402.059,174.98 403.726,175.813 405.5,176.5C 405.931,177.293 406.265,178.127 406.5,179C 403.333,182.829 403.999,185.663 408.5,187.5C 408.987,188.446 409.32,189.446 409.5,190.5C 407.91,192.656 406.243,194.822 404.5,197C 405.687,199.59 407.52,200.09 410,198.5C 411.773,205.318 410.106,210.985 405,215.5C 404.318,217.938 404.818,220.105 406.5,222C 403.668,225.831 401.501,229.998 400,234.5C 395.307,239.532 389.807,243.365 383.5,246C 368.352,249.999 353.018,251.166 337.5,249.5C 338.683,243.478 338.683,237.478 337.5,231.5C 337.997,227.807 338.997,224.307 340.5,221C 338.908,215.612 340.241,211.112 344.5,207.5C 344.333,206.833 344.167,206.167 344,205.5C 342.293,206.138 340.46,206.138 338.5,205.5C 337.857,201.599 338.857,198.266 341.5,195.5C 340.372,194.738 339.205,194.071 338,193.5C 337.333,190.833 337.333,188.167 338,185.5C 339.685,183.983 341.185,182.316 342.5,180.5C 341.675,179.614 340.675,179.281 339.5,179.5 Z"/></g>
<g><path style="opacity:1" fill="#222222" d="M 395.5,152.5 C 399.07,153.057 402.403,154.224 405.5,156C 404.109,157.02 402.609,157.853 401,158.5C 398.668,156.797 396.835,154.797 395.5,152.5 Z"/></g>
<g><path style="opacity:1" fill="#e0e0e0" d="M 321.5,155.5 C 322.833,155.5 324.167,155.5 325.5,155.5C 325.677,157.981 324.677,159.814 322.5,161C 317.315,163.898 311.982,166.232 306.5,168C 309.99,165.089 313.656,162.422 317.5,160C 315.331,159.571 313.331,160.071 311.5,161.5C 310.167,160.833 310.167,160.167 311.5,159.5C 315.067,158.457 318.4,157.123 321.5,155.5 Z"/></g>
<g><path style="opacity:1" fill="#111111" d="M 411.5,157.5 C 412.873,157.343 414.207,157.51 415.5,158C 413.129,160.01 410.463,161.01 407.5,161C 408.731,159.595 410.064,158.429 411.5,157.5 Z"/></g>
<g><path style="opacity:1" fill="#111111" d="M 418.5,181.5 C 419.882,180.199 421.548,179.366 423.5,179C 420.972,179.105 418.638,178.938 416.5,178.5C 421.614,175.556 425.448,171.556 428,166.5C 423.089,172.19 416.922,175.523 409.5,176.5C 409.452,173.708 410.785,171.875 413.5,171C 412.5,170.667 411.5,170.333 410.5,170C 414.718,166.066 419.385,162.899 424.5,160.5C 431.636,161.799 436.969,165.633 440.5,172C 438.167,173 435.833,174 433.5,175C 434.672,175.419 435.672,176.085 436.5,177C 434.285,178.044 431.952,178.71 429.5,179C 428.953,179.925 428.287,180.758 427.5,181.5C 422.286,183.61 417.286,185.944 412.5,188.5C 412.351,187.448 412.517,186.448 413,185.5C 414.992,184.335 416.825,183.002 418.5,181.5 Z"/></g>
<g><path style="opacity:1" fill="#0f0f0f" d="M 412.5,161.5 C 413.873,161.343 415.207,161.51 416.5,162C 413.304,164.409 409.97,166.575 406.5,168.5C 405.386,167.277 405.219,165.944 406,164.5C 408.415,163.868 410.582,162.868 412.5,161.5 Z"/></g>
<g><path style="opacity:1" fill="#131313" d="M 319.5,175.5 C 317.254,176.455 314.921,177.122 312.5,177.5C 318.078,171.793 325.078,167.126 333.5,163.5C 334.833,165.167 334.833,166.833 333.5,168.5C 328.379,170.248 323.712,172.581 319.5,175.5 Z"/></g>
<g><path style="opacity:1" fill="#a6a6a6" d="M 421.5,166.5 C 425.221,166.793 425.055,167.459 421,168.5C 420.5,168.333 420,168.167 419.5,168C 420.416,167.722 421.082,167.222 421.5,166.5 Z"/></g>
<g><path style="opacity:1" fill="#838383" d="M 292.5,167.5 C 292.56,166.957 292.893,166.624 293.5,166.5C 294.386,167.325 294.719,168.325 294.5,169.5C 292.965,170.354 291.632,170.354 290.5,169.5C 291.473,169.013 292.473,168.513 293.5,168C 293.272,167.601 292.938,167.435 292.5,167.5 Z"/></g>
<g><path style="opacity:1" fill="#c1c1c1" d="M 290.5,169.5 C 289.341,170.456 288.174,171.456 287,172.5C 286.5,172.167 286,171.833 285.5,171.5C 286.853,169.299 288.52,168.632 290.5,169.5 Z"/></g>
<g><path style="opacity:1" fill="#101010" d="M 313.5,179.5 C 315.882,178.649 317.882,177.316 319.5,175.5C 323.895,174.287 328.228,173.12 332.5,172C 323.094,179.022 313.76,186.022 304.5,193C 302.782,193.346 301.115,193.846 299.5,194.5C 298.369,192.926 298.202,191.259 299,189.5C 303.208,185.103 308.042,181.769 313.5,179.5 Z"/></g>
<g><path style="opacity:1" fill="#7f7f7f" d="M 338.5,173.5 C 338.205,175.735 338.539,177.735 339.5,179.5C 339.44,180.043 339.107,180.376 338.5,180.5C 337.203,178.027 337.203,175.693 338.5,173.5 Z"/></g>
<g><path style="opacity:1" fill="#131313" d="M 217.5,175.5 C 218.725,176.152 219.392,177.319 219.5,179C 219.333,180.167 219.167,181.333 219,182.5C 215.693,184.745 212.193,186.245 208.5,187C 211.524,183.163 214.524,179.33 217.5,175.5 Z"/></g>
<g><path style="opacity:1" fill="#0a0a0a" d="M 440.5,175.5 C 446.095,175.094 448.761,177.761 448.5,183.5C 443.232,187.098 438.565,191.432 434.5,196.5C 435.002,197.521 435.668,197.688 436.5,197C 441.5,193.833 446.5,190.667 451.5,187.5C 452.896,188.852 453.563,190.519 453.5,192.5C 453.16,194.512 452.827,196.512 452.5,198.5C 450.339,198.826 448.506,199.826 447,201.5C 446.586,201.043 446.086,200.709 445.5,200.5C 444.738,201.628 444.071,202.795 443.5,204C 437.124,208.696 430.457,213.03 423.5,217C 421.5,219 419.5,221 417.5,223C 414.993,223.093 412.826,223.926 411,225.5C 410.634,221.554 411.968,218.221 415,215.5C 415.658,212.715 416.491,210.049 417.5,207.5C 423.497,206 428.831,203.167 433.5,199C 432.953,198.075 432.287,197.242 431.5,196.5C 426.505,200.664 421.171,204.331 415.5,207.5C 413.625,203.28 413.792,198.947 416,194.5C 418.74,193.718 421.574,193.218 424.5,193C 425.167,192.333 425.833,191.667 426.5,191C 424.874,191.195 423.207,191.195 421.5,191C 420.289,189.887 420.289,188.72 421.5,187.5C 423.657,186.21 425.99,185.376 428.5,185C 431.652,181.846 435.319,179.513 439.5,178C 440.252,177.329 440.586,176.496 440.5,175.5 Z"/></g>
<g><path style="opacity:1" fill="#777777" d="M 319.5,175.5 C 317.882,177.316 315.882,178.649 313.5,179.5C 313.167,178.833 312.833,178.167 312.5,177.5C 314.921,177.122 317.254,176.455 319.5,175.5 Z"/></g>
<g><path style="opacity:1" fill="#0e0e0e" d="M 330.5,177.5 C 331.833,177.5 333.167,177.5 334.5,177.5C 334.762,178.978 334.429,180.311 333.5,181.5C 330.827,182.501 328.493,184.001 326.5,186C 328.544,186.048 330.544,185.548 332.5,184.5C 332.833,184.833 333.167,185.167 333.5,185.5C 330.61,186.44 328.277,188.107 326.5,190.5C 326.833,190.833 327.167,191.167 327.5,191.5C 329.415,189.528 331.749,188.528 334.5,188.5C 334.425,191.206 334.092,193.873 333.5,196.5C 331.897,196.312 330.563,196.812 329.5,198C 335.431,196.974 336.098,198.641 331.5,203C 328.911,204.197 326.244,205.197 323.5,206C 316.082,212.452 308.249,218.285 300,223.5C 298.831,222.991 297.998,222.158 297.5,221C 298.113,218.853 298.779,216.686 299.5,214.5C 302.92,211.741 306.586,209.408 310.5,207.5C 310.333,207.167 310.167,206.833 310,206.5C 307.897,208.916 305.897,208.916 304,206.5C 302.555,207.742 301.055,208.575 299.5,209C 298.833,208.333 298.167,207.667 297.5,207C 299.074,205.174 299.907,203.007 300,200.5C 305.268,196.616 311.102,193.949 317.5,192.5C 317.649,191.448 317.483,190.448 317,189.5C 315.108,190.13 313.441,191.13 312,192.5C 311.5,192 311,191.5 310.5,191C 317.717,187.232 324.384,182.732 330.5,177.5 Z"/></g>
<g><path style="opacity:1" fill="#cccccc" d="M 425.5,177.5 C 429.339,177.612 429.339,178.279 425.5,179.5C 424.537,179.03 424.537,178.363 425.5,177.5 Z"/></g>
<g><path style="opacity:1" fill="#2d2d2d" d="M 309.5,178.5 C 311.975,178.747 311.975,179.413 309.5,180.5C 308.537,180.03 308.537,179.363 309.5,178.5 Z"/></g>
<g><path style="opacity:1" fill="#868686" d="M 416.5,178.5 C 418.638,178.938 420.972,179.105 423.5,179C 421.548,179.366 419.882,180.199 418.5,181.5C 417.116,180.199 415.616,180.199 414,181.5C 413.804,179.846 414.637,178.846 416.5,178.5 Z"/></g>
<g><path style="opacity:1" fill="#a2a2a2" d="M 438.5,184.5 C 443.445,184.824 443.279,185.824 438,187.5C 437.5,187.333 437,187.167 436.5,187C 437.381,186.292 438.047,185.458 438.5,184.5 Z"/></g>
<g><path style="opacity:1" fill="#484848" d="M 83.5,187.5 C 85.9752,187.747 85.9752,188.413 83.5,189.5C 82.537,189.03 82.537,188.363 83.5,187.5 Z"/></g>
<g><path style="opacity:1" fill="#0f0f0f" d="M 215.5,188.5 C 216.5,188.5 217.5,188.5 218.5,188.5C 219.181,193.155 217.181,195.822 212.5,196.5C 211,196.547 210,195.881 209.5,194.5C 211.215,192.118 213.215,190.118 215.5,188.5 Z"/></g>
<g><path style="opacity:1" fill="#dbdbdb" d="M 320.5,187.5 C 324.373,189.154 324.04,189.654 319.5,189C 320.056,188.617 320.389,188.117 320.5,187.5 Z"/></g>
<g><path style="opacity:1" fill="#1c1c1c" d="M 93.5,190.5 C 94.5862,190.62 95.2528,191.287 95.5,192.5C 93.7725,194.548 91.7725,196.381 89.5,198C 85.9247,198.666 82.5913,199.666 79.5,201C 84.0559,197.236 88.7225,193.736 93.5,190.5 Z"/></g>
<g><path style="opacity:1" fill="#d0d0d0" d="M 318.5,195.5 C 319.873,195.343 321.207,195.51 322.5,196C 322.167,196.333 321.833,196.667 321.5,197C 319.253,198.309 316.92,198.975 314.5,199C 315.731,197.595 317.064,196.429 318.5,195.5 Z"/></g>
<g><path style="opacity:1" fill="#646464" d="M 77.5,201.5 C 78.6878,203.496 78.0211,204.329 75.5,204C 76.3805,203.292 77.0472,202.458 77.5,201.5 Z"/></g>
<g><path style="opacity:1" fill="#1d1d1d" d="M 449.5,203.5 C 450.833,203.5 452.167,203.5 453.5,203.5C 453.67,204.822 453.337,205.989 452.5,207C 449.167,208.333 445.833,209.667 442.5,211C 441.299,211.903 440.465,213.069 440,214.5C 439.167,213.667 438.333,212.833 437.5,212C 441.385,208.887 445.385,206.054 449.5,203.5 Z"/></g>
<g><path style="opacity:1" fill="#161616" d="M 89.5,204.5 C 90.675,204.281 91.675,204.614 92.5,205.5C 91.2528,207.323 90.5861,209.323 90.5,211.5C 87.3117,211.618 84.3117,212.451 81.5,214C 76.4626,218.027 71.1293,221.694 65.5,225C 64.1667,225.667 62.8333,225.667 61.5,225C 70.3303,217.424 79.6637,210.591 89.5,204.5 Z"/></g>
<g><path style="opacity:1" fill="#909090" d="M 306.5,203.5 C 309.797,203.329 310.131,203.995 307.5,205.5C 306.702,205.043 306.369,204.376 306.5,203.5 Z"/></g>
<g><path style="opacity:1" fill="#0e0e0e" d="M 330.5,204.5 C 331.833,204.5 333.167,204.5 334.5,204.5C 334.762,205.978 334.429,207.311 333.5,208.5C 328.422,210.457 323.588,212.79 319,215.5C 318.5,215.333 318,215.167 317.5,215C 319.92,210.73 323.587,208.063 328.5,207C 329.381,206.292 330.047,205.458 330.5,204.5 Z"/></g>
<g><path style="opacity:1" fill="#141414" d="M 215.5,204.5 C 216.725,205.152 217.392,206.319 217.5,208C 216.638,212.378 215.638,212.211 214.5,207.5C 214.685,206.416 215.018,205.416 215.5,204.5 Z"/></g>
<g><path style="opacity:1" fill="#141414" d="M 329.5,211.5 C 330.873,211.343 332.207,211.51 333.5,212C 323.39,219.563 313.056,226.897 302.5,234C 301.594,235.699 301.261,237.533 301.5,239.5C 304.439,239.082 306.772,237.582 308.5,235C 313.28,233.444 317.613,231.111 321.5,228C 324.742,226.361 328.076,225.361 331.5,225C 320.509,233.183 309.176,240.683 297.5,247.5C 296.28,247.113 295.613,246.28 295.5,245C 297.563,242.161 297.897,239.161 296.5,236C 296.861,233.551 297.528,231.218 298.5,229C 308.858,223.062 319.191,217.229 329.5,211.5 Z"/></g>
<g><path style="opacity:1" fill="#0b0b0b" d="M 447.5,215.5 C 448.552,215.351 449.552,215.517 450.5,216C 447.438,222.061 443.272,227.228 438,231.5C 437.51,230.207 437.343,228.873 437.5,227.5C 435.801,227.66 434.134,227.494 432.5,227C 431.549,226.282 431.383,225.449 432,224.5C 437.598,222.009 442.765,219.009 447.5,215.5 Z"/></g>
<g><path style="opacity:1" fill="#1f1f1f" d="M 332.5,216.5 C 333.5,216.5 334.5,216.5 335.5,216.5C 335.719,217.675 335.386,218.675 334.5,219.5C 331.557,220.613 328.723,221.946 326,223.5C 325.5,223.167 325,222.833 324.5,222.5C 327.131,220.317 329.798,218.317 332.5,216.5 Z"/></g>
<g><path style="opacity:1" fill="#222222" d="M 432.5,217.5 C 433.873,217.343 435.207,217.51 436.5,218C 431.617,220.694 426.783,223.527 422,226.5C 421.312,225.668 421.479,225.002 422.5,224.5C 426.25,222.637 429.583,220.303 432.5,217.5 Z"/></g>
<g><path style="opacity:1" fill="#3d3d3d" d="M 80.5,222.5 C 81.525,222.897 81.6917,223.563 81,224.5C 78.946,226.547 77.946,226.547 78,224.5C 78.9947,223.934 79.828,223.267 80.5,222.5 Z"/></g>
<g><path style="opacity:1" fill="#0e0e0e" d="M 323.5,234.5 C 326.2,232.614 328.866,230.447 331.5,228C 332.448,227.517 333.448,227.351 334.5,227.5C 334.714,229.144 334.38,230.644 333.5,232C 330.464,234.006 327.131,234.84 323.5,234.5 Z"/></g>
<g><path style="opacity:1" fill="#343434" d="M 416.5,226.5 C 417.552,226.351 418.552,226.517 419.5,227C 416.107,229.534 412.441,231.201 408.5,232C 411.07,229.913 413.737,228.08 416.5,226.5 Z"/></g>
<g><path style="opacity:1" fill="#121212" d="M 428.5,230.5 C 430.927,231.279 430.927,232.446 428.5,234C 422.21,236.812 416.21,240.145 410.5,244C 405.256,245.648 399.923,246.315 394.5,246C 405.261,239.451 416.594,234.284 428.5,230.5 Z"/></g>
<g><path style="opacity:1" fill="#3a3a3a" d="M 323.5,234.5 C 323.5,235.167 323.5,235.833 323.5,236.5C 321.891,236.906 320.557,236.906 319.5,236.5C 320.32,234.889 321.654,234.222 323.5,234.5 Z"/></g>
<g><path style="opacity:1" fill="#121212" d="M 323.5,236.5 C 325.368,235.243 327.035,235.576 328.5,237.5C 317.607,244.22 307.107,251.553 297,259.5C 295.635,258.407 295.301,257.074 296,255.5C 302.902,249.966 310.068,244.799 317.5,240C 320.264,239.994 322.264,238.828 323.5,236.5 Z"/></g>
<g><path style="opacity:1" fill="#161616" d="M 330.5,238.5 C 331.833,238.5 333.167,238.5 334.5,238.5C 334.67,239.822 334.337,240.989 333.5,242C 328.802,243.766 324.302,245.933 320,248.5C 319.517,247.552 319.351,246.552 319.5,245.5C 321.308,245.509 322.975,245.009 324.5,244C 326.396,241.932 328.396,240.099 330.5,238.5 Z"/></g>
<g><path style="opacity:1" fill="#111111" d="M 331.5,249.5 C 332.289,249.783 332.956,250.283 333.5,251C 331.645,254.233 328.979,255.566 325.5,255C 327.763,253.383 329.763,251.55 331.5,249.5 Z"/></g>
<g><path style="opacity:1" fill="#171717" d="M 322.5,249.5 C 323.239,249.369 323.906,249.536 324.5,250C 318.644,255.084 312.644,259.917 306.5,264.5C 305.614,265.325 305.281,266.325 305.5,267.5C 301.835,268.748 298.335,270.415 295,272.5C 294.365,270.365 294.699,268.365 296,266.5C 304.492,260.151 313.325,254.484 322.5,249.5 Z"/></g>
<g><path style="opacity:1" fill="#050505" d="M 52.5,258.5 C 50.4017,259.914 49.4017,259.248 49.5,256.5C 50.7767,254.086 52.4434,253.919 54.5,256C 53.6195,256.708 52.9528,257.542 52.5,258.5 Z"/></g>
<g><path style="opacity:1" fill="#1d1d1d" d="M 85.5,254.5 C 89.0794,254.766 89.4127,256.099 86.5,258.5C 83.2473,259.041 80.414,260.374 78,262.5C 76.9412,262.37 76.1079,261.87 75.5,261C 78.7611,258.548 82.0944,256.381 85.5,254.5 Z"/></g>
<g><path style="opacity:1" fill="#191919" d="M 191.5,255.5 C 194.85,255.335 198.183,255.502 201.5,256C 197.886,257.32 194.22,258.487 190.5,259.5C 190.167,259 189.833,258.5 189.5,258C 190.056,256.989 190.722,256.156 191.5,255.5 Z"/></g>
<g><path style="opacity:1" fill="#151515" d="M 209.5,255.5 C 212.397,255.125 215.063,255.625 217.5,257C 215,257.375 212.667,258.208 210.5,259.5C 209.571,258.311 209.238,256.978 209.5,255.5 Z"/></g>
<g><path style="opacity:1" fill="#141414" d="M 402.5,257.5 C 404.288,257.215 405.955,257.548 407.5,258.5C 406.278,260.978 404.278,261.978 401.5,261.5C 401.433,260.041 401.766,258.708 402.5,257.5 Z"/></g>
<g><path style="opacity:1" fill="#5c5c5c" d="M 49.5,256.5 C 49.4017,259.248 50.4017,259.914 52.5,258.5C 51.8166,260.176 50.4832,260.843 48.5,260.5C 48.2322,258.901 48.5655,257.568 49.5,256.5 Z"/></g>
<g><path style="opacity:1" fill="#131313" d="M 331.5,258.5 C 334.167,261.081 333.833,263.581 330.5,266C 325.604,268.365 320.771,270.865 316,273.5C 315.5,273.167 315,272.833 314.5,272.5C 316.387,269.71 318.887,267.71 322,266.5C 323.749,264.247 325.249,261.914 326.5,259.5C 328.415,259.784 330.081,259.451 331.5,258.5 Z"/></g>
<g><path style="opacity:1" fill="#363636" d="M 186.5,259.5 C 187.376,259.369 188.043,259.702 188.5,260.5C 186.192,261.873 185.525,261.54 186.5,259.5 Z"/></g>
<g><path style="opacity:1" fill="#434343" d="M 321.5,259.5 C 323.337,259.639 323.67,260.306 322.5,261.5C 321.702,261.043 321.369,260.376 321.5,259.5 Z"/></g>
<g><path style="opacity:1" fill="#161616" d="M 412.5,262.5 C 415.562,260.879 418.228,261.379 420.5,264C 418.043,265.562 415.376,266.562 412.5,267C 414.167,267.333 415.833,267.667 417.5,268C 414.838,271.832 411.172,273.666 406.5,273.5C 406.161,270.214 405.327,267.214 404,264.5C 406.195,262.07 408.862,260.403 412,259.5C 412.483,260.448 412.649,261.448 412.5,262.5 Z"/></g>
<g><path style="opacity:1" fill="#171717" d="M 80.5,250.5 C 81.2389,250.369 81.9056,250.536 82.5,251C 78.4197,253.704 74.753,256.871 71.5,260.5C 68.2,259.76 65.2,260.593 62.5,263C 62.9426,264.518 62.2759,265.685 60.5,266.5C 61.847,270.11 61.1804,270.443 58.5,267.5C 55.7633,268.069 54.2633,269.736 54,272.5C 52.6439,271.62 51.1439,271.286 49.5,271.5C 49.1667,269.5 48.8333,267.5 48.5,265.5C 50.5273,265.662 52.5273,265.495 54.5,265C 62.9361,259.694 71.6027,254.86 80.5,250.5 Z"/></g>
<g><path style="opacity:1" fill="#434343" d="M 191.5,262.5 C 192.552,262.351 193.552,262.517 194.5,263C 190.529,266.474 189.529,266.307 191.5,262.5 Z"/></g>
<g><path style="opacity:1" fill="#131313" d="M 316.5,262.5 C 317.978,262.238 319.311,262.571 320.5,263.5C 311.917,270.044 303.417,276.711 295,283.5C 294.146,280.302 295.312,277.469 298.5,275C 305.09,271.55 311.09,267.384 316.5,262.5 Z"/></g>
<g><path style="opacity:1" fill="#d4d4d4" d="M 412.5,262.5 C 411.685,263.837 410.518,264.837 409,265.5C 408.667,263.066 409.834,262.066 412.5,262.5 Z"/></g>
<g><path style="opacity:1" fill="#1d1d1d" d="M 206.5,262.5 C 207.552,262.351 208.552,262.517 209.5,263C 206.513,265.674 203.346,268.174 200,270.5C 199.517,271.448 199.351,272.448 199.5,273.5C 197.473,273.338 195.473,273.505 193.5,274C 192.183,275.659 190.517,276.826 188.5,277.5C 187.479,276.998 187.312,276.332 188,275.5C 189.41,274.213 190.91,273.046 192.5,272C 191.289,271.107 191.289,270.274 192.5,269.5C 197.61,267.917 202.276,265.584 206.5,262.5 Z"/></g>
<g><path style="opacity:1" fill="#3d3d3d" d="M 67.5,263.5 C 70.1505,263.958 70.6505,264.958 69,266.5C 67.9614,265.756 67.4614,264.756 67.5,263.5 Z"/></g>
<g><path style="opacity:1" fill="#232323" d="M 72.5,266.5 C 75.0728,266.148 77.4062,266.648 79.5,268C 75.9647,269.574 72.298,270.241 68.5,270C 70.3187,269.26 71.6521,268.093 72.5,266.5 Z"/></g>
<g><path style="opacity:1" fill="#111111" d="M 327.5,269.5 C 328.239,269.369 328.906,269.536 329.5,270C 327.833,272.333 325.833,274.333 323.5,276C 317.278,280.604 311.278,285.437 305.5,290.5C 302.225,293.303 298.558,295.303 294.5,296.5C 294.201,294.396 294.534,292.396 295.5,290.5C 298.582,288.628 301.249,286.295 303.5,283.5C 308.967,281.936 313.633,279.102 317.5,275C 320.949,273.251 324.283,271.417 327.5,269.5 Z"/></g>
<g><path style="opacity:1" fill="#161616" d="M 421.5,269.5 C 422.873,269.343 424.207,269.51 425.5,270C 426.833,271 426.833,272 425.5,273C 420.694,275.242 415.861,277.409 411,279.5C 407.61,278.268 407.777,277.434 411.5,277C 413.916,273.059 417.25,270.559 421.5,269.5 Z"/></g>
<g><path style="opacity:1" fill="#0d0d0d" d="M 332.5,271.5 C 333.461,273.265 333.795,275.265 333.5,277.5C 328.342,278.484 328.342,279.317 333.5,280C 331.781,281.87 330.781,284.037 330.5,286.5C 326,288.083 321.666,290.25 317.5,293C 310.506,298.331 303.839,303.998 297.5,310C 296.551,310.617 295.718,310.451 295,309.5C 294.192,307.421 294.359,305.421 295.5,303.5C 305.623,295.029 316.456,287.696 328,281.5C 328.688,280.668 328.521,280.002 327.5,279.5C 325.099,282.413 323.766,282.079 323.5,278.5C 325.99,276.88 328.656,275.38 331.5,274C 332.252,273.329 332.586,272.496 332.5,271.5 Z"/></g>
<g><path style="opacity:1" fill="#1d1d1d" d="M 216.5,273.5 C 218.355,273.272 219.188,273.939 219,275.5C 214.63,278.768 209.797,281.101 204.5,282.5C 203.614,281.675 203.281,280.675 203.5,279.5C 205.927,279.477 208.26,278.977 210.5,278C 212.141,275.837 214.141,274.337 216.5,273.5 Z"/></g>
<g><path style="opacity:1" fill="#616161" d="M 59.5,276.5 C 60.7082,275.218 62.0416,275.218 63.5,276.5C 62.3002,277.292 60.9669,277.292 59.5,276.5 Z"/></g>
<g><path style="opacity:1" fill="#515151" d="M 84.5,274.5 C 86.0418,275.301 87.7085,275.634 89.5,275.5C 89.5,276.5 89.5,277.5 89.5,278.5C 86.9556,278.104 84.7889,278.771 83,280.5C 82.7287,278.193 83.8953,277.026 86.5,277C 84.065,276.925 83.3984,276.092 84.5,274.5 Z"/></g>
<g><path style="opacity:1" fill="#2d2d2d" d="M 305.5,277.5 C 306.708,276.218 308.042,276.218 309.5,277.5C 308.192,278.626 306.858,278.626 305.5,277.5 Z"/></g>
<g><path style="opacity:1" fill="#1b1b1b" d="M 423.5,276.5 C 424.774,277.189 424.774,278.023 423.5,279C 418.678,281.248 414.345,284.248 410.5,288C 404.57,290.044 403.903,288.711 408.5,284C 413.679,281.41 418.679,278.91 423.5,276.5 Z"/></g>
<g><path style="opacity:1" fill="#1f1f1f" d="M 430.5,278.5 C 431.376,278.369 432.043,278.702 432.5,279.5C 430.192,280.873 429.525,280.54 430.5,278.5 Z"/></g>
<g><path style="opacity:1" fill="#1b1b1b" d="M 68.5,281.5 C 68.5,282.167 68.5,282.833 68.5,283.5C 67.1266,283.343 65.7932,283.51 64.5,284C 65.495,286.055 64.6616,287.221 62,287.5C 58.6876,285.879 58.6876,285.545 62,286.5C 62.8481,284.126 64.1814,282.126 66,280.5C 66.9021,280.743 67.7354,281.077 68.5,281.5 Z"/></g>
<g><path style="opacity:1" fill="#7a7a7a" d="M 71.5,282.5 C 70.1667,282.5 69.5,283.167 69.5,284.5C 68.8333,284.5 68.5,284.167 68.5,283.5C 68.5,282.833 68.5,282.167 68.5,281.5C 68.1762,278.32 69.5096,277.153 72.5,278C 70.4523,279.226 70.119,280.726 71.5,282.5 Z"/></g>
<g><path style="opacity:1" fill="#7f7f7f" d="M 53.5,280.5 C 55.0898,280.628 56.4231,281.295 57.5,282.5C 57.0623,283.506 56.3957,283.506 55.5,282.5C 54.8333,283.5 54.1667,284.5 53.5,285.5C 52.9478,283.997 52.9478,282.331 53.5,280.5 Z"/></g>
<g><path style="opacity:1" fill="#020202" d="M 71.5,282.5 C 71.5,283.833 70.8333,284.5 69.5,284.5C 69.5,283.167 70.1667,282.5 71.5,282.5 Z"/></g>
<g><path style="opacity:1" fill="#181818" d="M 210.5,290.5 C 212.628,288.569 214.628,286.402 216.5,284C 217.793,283.51 219.127,283.343 220.5,283.5C 220.714,285.144 220.38,286.644 219.5,288C 216.748,289.751 213.748,290.584 210.5,290.5 Z"/></g>
<g><path style="opacity:1" fill="#202020" d="M 210.5,282.5 C 212.028,282.517 212.528,283.184 212,284.5C 208.534,286.322 205.367,288.488 202.5,291C 203.167,291.333 203.833,291.667 204.5,292C 198.278,293.883 192.778,297.049 188,301.5C 187.542,298.904 188.375,296.737 190.5,295C 193.797,292.816 197.13,290.983 200.5,289.5C 200.5,288.5 200.5,287.5 200.5,286.5C 204.775,287.25 208.109,285.917 210.5,282.5 Z"/></g>
<g><path style="opacity:1" fill="#151515" d="M 433.5,286.5 C 435.308,287.918 435.975,289.918 435.5,292.5C 429.008,294.564 422.675,296.731 416.5,299C 422.038,294.624 427.705,290.457 433.5,286.5 Z"/></g>
<g><path style="opacity:1" fill="#151515" d="M 88.5,287.5 C 89.3764,287.369 90.0431,287.702 90.5,288.5C 89.277,289.614 87.9437,289.781 86.5,289C 87.4158,288.722 88.0825,288.222 88.5,287.5 Z"/></g>
<g><path style="opacity:1" fill="#303030" d="M 331.5,287.5 C 333.842,287.775 333.842,288.608 331.5,290C 329.553,290.991 327.553,291.325 325.5,291C 327.618,289.918 329.618,288.751 331.5,287.5 Z"/></g>
<g><path style="opacity:1" fill="#161616" d="M 72.5,288.5 C 73.552,288.351 74.552,288.517 75.5,289C 73.6487,290.684 71.982,292.517 70.5,294.5C 65.8333,296.833 61.1667,299.167 56.5,301.5C 56.1667,301.167 55.8333,300.833 55.5,300.5C 56.8333,298.833 58.1667,297.167 59.5,295.5C 63.691,292.724 68.0244,290.39 72.5,288.5 Z"/></g>
<g><path style="opacity:1" fill="#060606" d="M 210.5,290.5 C 209.762,292.76 208.762,292.927 207.5,291C 208.448,290.517 209.448,290.351 210.5,290.5 Z"/></g>
<g><path style="opacity:1" fill="#131313" d="M 420.5,287.5 C 421.873,287.343 423.207,287.51 424.5,288C 419.519,291.17 414.853,294.837 410.5,299C 409.056,299.781 407.723,299.614 406.5,298.5C 411.197,294.825 415.864,291.158 420.5,287.5 Z"/></g>
<g><path style="opacity:1" fill="#1d1d1d" d="M 206.5,295.5 C 208.028,295.517 208.528,296.184 208,297.5C 206.471,298.729 205.304,300.229 204.5,302C 201.099,301.734 199.433,303.234 199.5,306.5C 195.557,306.595 192.057,307.928 189,310.5C 187.623,309.964 187.623,308.964 189,307.5C 194.269,302.558 200.102,298.558 206.5,295.5 Z"/></g>
<g><path style="opacity:1" fill="#101010" d="M 429.5,296.5 C 430.473,296.987 431.473,297.487 432.5,298C 427.258,300.583 422.591,303.916 418.5,308C 417.663,309.011 417.33,310.178 417.5,311.5C 413.889,311.639 411.223,313.306 409.5,316.5C 409.96,318.786 411.293,320.119 413.5,320.5C 416.129,318.652 418.796,317.152 421.5,316C 417.619,319.66 415.286,324.16 414.5,329.5C 412.851,330.648 411.351,331.981 410,333.5C 408.556,325.856 407.556,318.19 407,310.5C 412.104,305.717 417.938,302.217 424.5,300C 426.233,298.811 427.9,297.644 429.5,296.5 Z"/></g>
<g><path style="opacity:1" fill="#111111" d="M 326.5,299.5 C 327.873,299.343 329.207,299.51 330.5,300C 328.509,303.036 325.842,304.703 322.5,305C 322.167,304.667 321.833,304.333 321.5,304C 323.66,303.004 325.327,301.504 326.5,299.5 Z"/></g>
<g><path style="opacity:1" fill="#1b1b1b" d="M 90.5,300.5 C 92.4646,300.948 92.7979,301.948 91.5,303.5C 87.7898,305.593 84.6231,308.26 82,311.5C 80.6346,310.407 80.3013,309.074 81,307.5C 84.1169,304.852 87.2835,302.519 90.5,300.5 Z"/></g>
<g><path style="opacity:1" fill="#1e1e1e" d="M 434.5,300.5 C 435.787,301.871 436.453,303.705 436.5,306C 437.19,310.934 435.19,313.268 430.5,313C 434.412,310.72 434.412,308.553 430.5,306.5C 428.332,308.455 425.998,309.121 423.5,308.5C 427.387,306.064 431.053,303.398 434.5,300.5 Z"/></g>
<g><path style="opacity:1" fill="#171717" d="M 320.5,298.5 C 321.239,298.369 321.906,298.536 322.5,299C 313.282,307.262 304.949,314.762 297.5,321.5C 296.167,319.167 296.167,316.833 297.5,314.5C 305.208,309.109 312.875,303.775 320.5,298.5 Z"/></g>
<g><path style="opacity:1" fill="#131313" d="M 61.5,305.5 C 62.5,305.5 63.5,305.5 64.5,305.5C 64.5,306.833 64.5,308.167 64.5,309.5C 69.3899,309.639 69.7233,311.139 65.5,314C 63.1902,314.497 60.8568,314.663 58.5,314.5C 58.6427,312.738 58.3094,311.071 57.5,309.5C 58.8665,308.16 60.1999,306.827 61.5,305.5 Z"/></g>
<g><path style="opacity:1" fill="#141414" d="M 218.5,295.5 C 220.419,300.471 221.252,305.804 221,311.5C 218.498,312.108 216.498,313.441 215,315.5C 211.787,317.154 208.954,316.821 206.5,314.5C 210.2,311.786 213.867,309.619 217.5,308C 220.142,304.916 219.309,303.083 215,302.5C 212.455,303.249 209.955,303.749 207.5,304C 209.5,301.667 211.5,299.333 213.5,297C 215.382,296.802 217.048,296.302 218.5,295.5 Z"/></g>
<g><path style="opacity:1" fill="#333333" d="M 100.5,309.5 C 102.657,310.053 102.49,311.053 100,312.5C 99.5304,311.423 99.6971,310.423 100.5,309.5 Z"/></g>
<g><path style="opacity:1" fill="#7e7e7e" d="M 82.5,313.5 C 84.4286,313.231 86.0953,313.731 87.5,315C 86.6667,315.167 85.8333,315.333 85,315.5C 83.6244,315.316 82.7911,314.649 82.5,313.5 Z"/></g>
<g><path style="opacity:1" fill="#0c0c0c" d="M 89.5,314.5 C 90.8734,314.343 92.2068,314.51 93.5,315C 91.7923,316.51 90.1256,318.01 88.5,319.5C 90.6083,318.775 92.9417,318.775 95.5,319.5C 96.9294,321.331 97.4294,323.331 97,325.5C 94.9129,326.834 93.4129,328.667 92.5,331C 87.6851,332.045 83.3517,334.045 79.5,337C 78.0563,337.781 76.723,337.614 75.5,336.5C 72.2357,332.313 68.7357,328.313 65,324.5C 64.2888,322.633 64.7888,321.133 66.5,320C 69.2966,318.767 71.9632,317.267 74.5,315.5C 75.521,316.002 75.6877,316.668 75,317.5C 72.9327,320.07 70.4327,322.07 67.5,323.5C 67.9996,324.881 68.9996,325.547 70.5,325.5C 74.1074,323.792 77.4408,321.626 80.5,319C 82.7885,318.178 85.1218,317.511 87.5,317C 88.3805,316.292 89.0472,315.458 89.5,314.5 Z"/></g>
<g><path style="opacity:1" fill="#181818" d="M 200.5,311.5 C 201.873,311.343 203.207,311.51 204.5,312C 198.981,316.437 193.315,320.604 187.5,324.5C 186.417,323.635 186.251,322.635 187,321.5C 190.921,317.177 195.421,313.844 200.5,311.5 Z"/></g>
<g><path style="opacity:1" fill="#141414" d="M 216.5,317.5 C 218.549,317.706 218.883,318.539 217.5,320C 212.508,322.161 207.841,324.828 203.5,328C 202.128,329.242 201.128,330.742 200.5,332.5C 196.489,333.227 192.489,333.893 188.5,334.5C 188.167,334.167 187.833,333.833 187.5,333.5C 195.84,325.433 205.506,320.1 216.5,317.5 Z"/></g>
<g><path style="opacity:1" fill="#191919" d="M 430.5,319.5 C 432.604,319.201 434.604,319.534 436.5,320.5C 435.5,320.833 434.5,321.167 433.5,321.5C 431.97,321.36 430.97,320.693 430.5,319.5 Z"/></g>
<g><path style="opacity:1" fill="#161616" d="M 332.5,319.5 C 333.645,320.793 333.311,321.959 331.5,323C 329.835,323.788 328.169,324.122 326.5,324C 328.141,321.837 330.141,320.337 332.5,319.5 Z"/></g>
<g><path style="opacity:1" fill="#121212" d="M 431.5,324.5 C 433.199,324.34 434.866,324.506 436.5,325C 434.658,326.344 432.992,327.844 431.5,329.5C 433.724,330.78 435.724,330.447 437.5,328.5C 438.466,330.396 438.799,332.396 438.5,334.5C 436.516,334.383 434.85,335.05 433.5,336.5C 434.811,337.258 435.311,338.258 435,339.5C 430.304,343.028 425.471,346.362 420.5,349.5C 419.571,348.311 419.238,346.978 419.5,345.5C 422.067,344.327 424.733,343.161 427.5,342C 430.416,339.929 430.082,338.595 426.5,338C 433.282,332.445 432.615,331.445 424.5,335C 421.633,337.21 418.8,339.377 416,341.5C 412.745,341.255 411.412,339.588 412,336.5C 418.645,332.679 425.145,328.679 431.5,324.5 Z"/></g>
<g><path style="opacity:1" fill="#111111" d="M 215.5,326.5 C 216.675,326.281 217.675,326.614 218.5,327.5C 216.961,330.746 215.294,333.912 213.5,337C 210.902,336.874 208.569,335.874 206.5,334C 209.69,331.636 212.69,329.136 215.5,326.5 Z"/></g>
<g><path style="opacity:1" fill="#0f0f0f" d="M 330.5,305.5 C 333.513,306.356 334.18,308.189 332.5,311C 330.039,312.415 327.706,313.915 325.5,315.5C 326.376,316.251 327.376,316.751 328.5,317C 318.265,327.307 307.098,336.474 295,344.5C 294.399,345.965 294.899,346.965 296.5,347.5C 301.927,344.241 306.927,340.408 311.5,336C 318.32,332.153 325.32,328.819 332.5,326C 324.378,332.617 316.378,339.45 308.5,346.5C 306.585,348.071 305.585,350.071 305.5,352.5C 307.564,352.313 309.564,351.813 311.5,351C 316.393,346.059 322.06,342.392 328.5,340C 325.879,339.094 326.046,338.594 329,338.5C 329.833,338.833 330.667,339.167 331.5,339.5C 327.821,343.872 325.487,348.872 324.5,354.5C 314.376,356.029 304.376,355.362 294.5,352.5C 291.33,353.933 288.33,353.767 285.5,352C 291.358,348.162 294.692,342.829 295.5,336C 299.5,332.667 303.5,329.333 307.5,326C 313.196,324.07 318.363,321.236 323,317.5C 323.239,315.275 322.405,314.942 320.5,316.5C 319.614,315.675 319.281,314.675 319.5,313.5C 320.552,313.649 321.552,313.483 322.5,313C 325.062,310.267 327.729,307.767 330.5,305.5 Z"/></g>
<g><path style="opacity:1" fill="#606060" d="M 95.5,327.5 C 99.2965,328.911 99.2965,329.911 95.5,330.5C 95.5,329.5 95.5,328.5 95.5,327.5 Z"/></g>
<g><path style="opacity:1" fill="#121212" d="M 332.5,331.5 C 333.653,332.313 333.653,333.313 332.5,334.5C 329.611,335.389 326.945,336.722 324.5,338.5C 324.167,338.167 323.833,337.833 323.5,337.5C 326.107,334.764 329.107,332.764 332.5,331.5 Z"/></g>
<g><path style="opacity:1" fill="#191919" d="M 218.5,333.5 C 219.5,333.5 220.5,333.5 221.5,333.5C 221.5,335.833 221.5,338.167 221.5,340.5C 220.5,340.5 219.5,340.5 218.5,340.5C 218.5,338.167 218.5,335.833 218.5,333.5 Z"/></g>
<g><path style="opacity:1" fill="#1e1e1e" d="M 98.5,336.5 C 99.8734,336.343 101.207,336.51 102.5,337C 98.7914,340.509 95.1247,344.009 91.5,347.5C 89.9411,346.926 88.4411,346.26 87,345.5C 89.3726,342.039 92.8726,339.706 97.5,338.5C 98.2975,338.043 98.6309,337.376 98.5,336.5 Z"/></g>
<g><path style="opacity:1" fill="#1c1c1c" d="M 437.5,341.5 C 438.978,341.238 440.311,341.571 441.5,342.5C 439.956,344.446 437.956,344.946 435.5,344C 436.381,343.292 437.047,342.458 437.5,341.5 Z"/></g>
<g><path style="opacity:1" fill="#131313" d="M 333.5,343.5 C 336.129,347.217 339.129,350.717 342.5,354C 338.718,355.703 335.052,355.703 331.5,354C 332.716,352.26 334.382,351.26 336.5,351C 335.737,350.056 334.737,349.556 333.5,349.5C 329.507,351.198 328.84,350.532 331.5,347.5C 331.167,346.833 330.833,346.167 330.5,345.5C 331.602,344.824 332.602,344.158 333.5,343.5 Z"/></g>
<g><path style="opacity:1" fill="#141414" d="M 442.5,344.5 C 443.497,344.47 444.164,344.97 444.5,346C 442.726,348.343 441.392,350.843 440.5,353.5C 439.325,353.281 438.325,353.614 437.5,354.5C 438.711,355.72 438.711,356.887 437.5,358C 433.57,359.138 430.236,358.305 427.5,355.5C 430.317,353.183 432.984,350.683 435.5,348C 438.731,348.989 441.064,347.822 442.5,344.5 Z"/></g>
<g><path style="opacity:1" fill="#121212" d="M 104.5,347.5 C 113.258,348.304 113.758,350.971 106,355.5C 98.0321,354.108 97.5321,351.441 104.5,347.5 Z"/></g>
</svg>
