<?xml version="1.0" standalone="no"?>
<!DOCTYPE svg PUBLIC "-//W3C//DTD SVG 20010904//EN"
 "http://www.w3.org/TR/2001/REC-SVG-20010904/DTD/svg10.dtd">
<svg version="1.0" xmlns="http://www.w3.org/2000/svg"
 width="512.000000pt" height="512.000000pt" viewBox="0 0 512.000000 512.000000"
 preserveAspectRatio="xMidYMid meet">

<g transform="translate(0.000000,512.000000) scale(0.100000,-0.100000)"
fill="#111827" stroke="none">
<path d="M390 5104 c-30 -8 -80 -26 -110 -41 -72 -35 -188 -151 -223 -223 -61
-126 -57 23 -57 -2280 0 -2303 -4 -2154 57 -2280 35 -72 151 -188 223 -223
126 -61 -23 -57 2280 -57 2303 0 2154 -4 2280 57 72 35 188 151 223 223 61
126 57 -23 57 2280 0 2303 4 2154 -57 2280 -35 72 -151 188 -223 223 -127 61
23 57 -2285 56 -1816 0 -2118 -2 -2165 -15z m1095 -1449 c84 -11 167 -35 193
-56 14 -10 30 -19 36 -20 6 0 33 -11 60 -23 35 -17 69 -47 122 -111 41 -48 74
-93 74 -99 0 -19 67 -79 79 -72 6 4 11 12 11 18 0 5 12 24 26 41 44 52 95 166
101 224 6 57 12 67 36 57 37 -14 38 -86 9 -524 -5 -69 -7 -155 -4 -193 5 -71
-10 -127 -34 -127 -19 0 -31 27 -39 90 -8 59 -32 130 -45 130 -4 0 -17 30 -29
68 -26 78 -46 112 -66 112 -10 0 -15 10 -15 29 0 36 -83 161 -160 242 -47 49
-72 65 -175 110 -152 66 -238 81 -320 55 -30 -9 -55 -21 -55 -27 0 -5 -24 -20
-52 -33 -47 -21 -88 -55 -88 -72 0 -3 -13 -23 -28 -43 -16 -20 -34 -51 -41
-68 -8 -18 -17 -33 -21 -33 -3 0 -6 -10 -5 -22 1 -13 -11 -43 -27 -67 -15 -25
-28 -59 -28 -75 -1 -17 -7 -42 -15 -56 -18 -31 -19 -64 -3 -90 10 -16 10 -24
-1 -41 -10 -17 -10 -26 -1 -44 10 -19 9 -27 -8 -51 -28 -39 -49 -187 -31 -221
10 -18 10 -31 0 -63 -8 -27 -9 -52 -3 -77 5 -21 10 -69 11 -108 4 -130 8 -193
15 -203 3 -6 8 -45 10 -86 3 -42 8 -80 11 -87 7 -10 27 -8 78 7 11 4 17 0 17
-11 0 -13 -6 -16 -21 -12 -15 4 -19 2 -15 -8 3 -8 -2 -31 -10 -51 -18 -44 -6
-86 33 -111 18 -12 23 -22 19 -38 -13 -52 116 -242 177 -261 12 -4 34 -16 50
-27 22 -17 43 -21 101 -22 67 0 80 4 169 48 76 37 100 55 118 85 12 20 39 55
60 77 30 32 39 51 45 91 6 46 4 52 -15 57 -28 7 -27 38 2 74 16 19 24 42 25
73 1 24 5 53 8 63 6 18 2 19 -29 13 -20 -4 -38 -2 -41 3 -9 14 19 74 46 96 21
18 24 30 23 90 0 67 -1 70 -22 67 -18 -3 -23 2 -23 20 0 13 9 29 20 36 27 17
25 32 -5 32 -15 0 -29 8 -36 21 -9 18 -7 25 16 47 l28 25 -23 9 c-12 5 -78 7
-146 6 -89 -1 -128 2 -137 11 -9 10 -8 15 7 27 15 10 53 14 145 14 69 1 160 6
201 12 73 10 215 15 545 19 212 2 215 2 222 -17 11 -29 -25 -44 -103 -44 -48
0 -76 -4 -81 -13 -4 -7 -33 -25 -64 -40 -60 -30 -119 -81 -119 -103 0 -22 20
-26 46 -9 14 9 33 14 41 10 13 -5 11 -11 -12 -35 -16 -17 -34 -30 -41 -30 -17
0 -25 -29 -24 -82 0 -24 1 -92 0 -152 0 -66 4 -114 11 -122 7 -9 8 -24 3 -41
-5 -16 -9 -127 -9 -248 0 -213 -1 -220 -20 -220 -17 0 -22 12 -35 81 -15 80
-16 83 -63 118 -32 24 -72 43 -113 53 -60 15 -68 15 -125 -2 -52 -16 -69 -28
-122 -85 -34 -37 -75 -76 -92 -86 -16 -10 -39 -28 -50 -40 -14 -14 -41 -24
-81 -29 -32 -4 -74 -13 -93 -21 -48 -20 -128 -17 -181 7 -37 17 -56 19 -111
14 -55 -6 -74 -3 -112 14 -25 12 -51 21 -57 21 -6 0 -37 17 -68 39 -81 55
-153 95 -182 101 -18 4 -26 14 -31 40 -4 19 -18 42 -31 52 -44 34 -118 129
-118 152 0 9 -9 25 -20 36 -11 11 -20 25 -20 30 0 6 -8 25 -17 43 -15 30 -27
70 -40 142 -3 17 -12 35 -20 42 -12 9 -14 22 -10 50 5 27 2 42 -10 56 -13 14
-15 22 -6 36 18 28 10 186 -10 209 -21 23 -21 32 -1 46 24 18 46 111 33 140
-9 20 -5 32 26 80 31 46 35 58 25 71 -10 12 -8 20 10 42 37 49 67 96 110 173
23 41 65 98 93 125 29 28 84 85 122 128 44 50 80 80 97 84 15 3 55 30 90 60
35 31 86 66 113 79 28 13 61 30 75 37 14 8 45 20 70 26 25 7 59 16 75 21 17 4
39 7 50 5 11 -2 43 -7 70 -10z m2490 -22 c28 -3 55 -10 61 -15 7 -5 38 -13 69
-18 32 -5 65 -16 75 -25 9 -8 26 -15 38 -15 11 0 46 -7 77 -15 51 -13 66 -24
145 -105 120 -125 146 -184 144 -328 -2 -72 -6 -92 -38 -158 -42 -89 -105
-166 -192 -234 -65 -51 -162 -88 -277 -105 -26 -4 -47 -11 -47 -15 0 -9 78
-30 112 -30 25 0 90 -43 153 -102 22 -21 43 -38 47 -38 30 0 66 -163 72 -326
9 -226 31 -356 63 -377 29 -19 43 -40 38 -58 -5 -14 1 -22 20 -31 36 -16 43
-5 56 86 9 62 9 90 -1 128 -12 51 -7 106 13 139 18 28 61 24 86 -8 18 -22 21
-37 17 -102 -2 -42 -9 -94 -15 -116 -7 -22 -15 -51 -19 -65 -13 -47 -91 -137
-137 -159 -24 -11 -47 -27 -52 -35 -6 -11 -31 -16 -86 -19 -65 -3 -85 0 -125
18 -46 22 -125 97 -171 163 -29 41 -57 142 -70 250 -6 45 -15 90 -19 100 -5 9
-6 26 -3 36 14 36 3 177 -14 196 -15 17 -15 21 0 50 9 17 15 39 13 47 -3 14
-5 15 -18 2 -14 -13 -50 -25 -50 -16 0 12 36 74 48 83 20 15 6 34 -24 34 -23
0 -25 4 -22 33 3 30 -1 34 -54 62 l-57 30 -62 -17 c-39 -10 -69 -14 -79 -8
-23 12 -292 23 -308 12 -22 -15 -4 -62 24 -62 31 0 30 -6 -6 -59 -35 -51 -38
-81 -10 -88 25 -7 25 -8 -1 -44 -23 -32 -20 -59 7 -59 14 0 13 -5 -7 -37 -19
-32 -22 -50 -20 -118 1 -43 7 -85 12 -91 7 -9 7 -25 0 -50 -8 -30 -7 -41 4
-54 18 -20 19 -32 3 -48 -6 -6 -12 -37 -13 -69 -3 -83 22 -134 88 -178 52 -34
53 -34 209 -43 87 -4 160 -10 163 -14 3 -3 3 -12 -1 -21 -5 -14 -44 -16 -347
-18 -188 -1 -351 -1 -362 -2 -11 0 -92 5 -180 12 -156 12 -242 11 -376 -4 -87
-10 -119 -2 -119 29 0 23 4 24 83 31 157 13 260 42 323 90 25 19 30 29 26 50
-3 18 2 33 18 50 l23 25 -7 252 c-6 210 -10 256 -23 270 -14 16 -15 20 -1 36
11 12 18 59 26 157 6 77 19 231 28 342 17 202 15 244 -9 226 -6 -6 -20 -13
-29 -16 -14 -5 -18 -1 -18 19 0 18 10 30 35 45 39 23 44 49 21 95 -13 24 -13
30 0 48 19 27 18 66 -1 66 -19 0 -19 11 0 36 20 26 19 54 -2 54 -15 0 -16 2
-3 10 16 10 8 14 -25 10 -20 -2 -20 -2 0 20 19 21 19 22 0 36 -10 8 -22 14
-27 14 -4 0 -5 6 -2 14 9 23 -54 37 -183 42 -141 5 -155 9 -151 37 3 19 9 22
53 21 350 -6 1101 2 1205 13 47 6 92 8 100 5 8 -2 38 -7 65 -9z m-1085 -228
c-7 -8 -17 -12 -23 -8 -6 4 -3 11 8 19 23 17 32 10 15 -11z"/>
<path d="M2158 3329 c-21 -23 -38 -45 -38 -47 0 -3 -10 -16 -22 -29 l-21 -23
39 16 c68 27 86 45 82 88 l-3 37 -37 -42z"/>
<path d="M835 3230 c-3 -5 -2 -10 4 -10 5 0 13 5 16 10 3 6 2 10 -4 10 -5 0
-13 -4 -16 -10z"/>
<path d="M2155 3222 c-16 -10 -36 -27 -44 -36 -13 -15 -13 -19 0 -27 21 -13
34 -11 59 9 15 12 21 26 18 45 l-3 27 -30 -18z"/>
<path d="M935 3198 c-50 -28 -125 -81 -121 -85 6 -6 77 18 96 33 8 6 23 14 33
17 9 4 17 16 17 27 0 23 1 23 -25 8z"/>
<path d="M765 3080 c-3 -5 -2 -10 4 -10 5 0 13 5 16 10 3 6 2 10 -4 10 -5 0
-13 -4 -16 -10z"/>
<path d="M860 3040 c-25 -17 -56 -39 -68 -50 -13 -11 -30 -20 -37 -20 -7 0
-15 -7 -19 -15 -3 -8 -11 -15 -19 -15 -7 0 -32 -18 -55 -40 -39 -38 -40 -40
-15 -33 29 7 158 86 168 103 3 6 26 15 50 21 35 9 46 17 54 42 6 16 11 32 11
33 0 12 -31 0 -70 -26z"/>
<path d="M2155 3059 c-9 -14 3 -59 15 -59 6 0 10 16 10 35 0 34 -12 46 -25 24z"/>
<path d="M795 2879 c-4 -6 -5 -13 -2 -16 7 -7 27 6 27 18 0 12 -17 12 -25 -2z"/>
<path d="M865 2690 c-3 -5 -1 -10 4 -10 6 0 11 5 11 10 0 6 -2 10 -4 10 -3 0
-8 -4 -11 -10z"/>
<path d="M723 2565 c-51 -25 -94 -49 -97 -54 -11 -17 -86 -51 -112 -51 -22 0
-25 -3 -20 -22 3 -13 6 -26 6 -29 0 -4 11 -9 25 -11 17 -4 25 -1 25 8 0 22 39
38 57 22 14 -11 15 -10 8 11 -6 20 -5 23 10 17 15 -5 16 -4 6 8 -10 12 -6 18
29 36 22 11 45 18 50 15 4 -3 21 7 37 22 16 16 42 38 58 50 47 34 18 27 -82
-22z"/>
<path d="M860 2565 c-7 -8 -17 -15 -23 -15 -5 0 -25 -10 -44 -21 -26 -16 -31
-24 -21 -30 7 -5 22 -2 35 6 12 8 31 15 42 15 24 0 48 37 34 51 -6 6 -15 4
-23 -6z"/>
<path d="M500 2544 c-13 -33 -13 -34 8 -34 17 0 45 44 34 55 -13 13 -33 3 -42
-21z"/>
<path d="M1913 2553 c-13 -5 -18 -33 -7 -33 13 0 114 32 114 36 0 6 -92 4
-107 -3z"/>
<path d="M2100 2539 c0 -16 4 -19 18 -14 9 4 27 10 39 12 33 8 17 23 -23 23
-28 0 -34 -4 -34 -21z"/>
<path d="M1870 2510 c-13 -8 -12 -10 3 -10 9 0 17 5 17 10 0 12 -1 12 -20 0z"/>
<path d="M2120 2510 c-13 -8 -12 -10 3 -10 9 0 17 5 17 10 0 12 -1 12 -20 0z"/>
<path d="M1911 2476 c-10 -12 -8 -13 9 -9 25 7 37 23 17 23 -8 0 -20 -6 -26
-14z"/>
<path d="M2015 2454 c-39 -20 -71 -36 -72 -35 -13 5 -24 -1 -21 -11 3 -7 -6
-21 -19 -31 -13 -10 -23 -22 -23 -27 0 -12 37 0 51 16 6 8 22 14 34 14 13 0
29 10 38 23 9 13 29 30 46 36 26 11 48 38 38 47 -2 2 -34 -13 -72 -32z"/>
<path d="M685 2460 c4 -6 11 -8 16 -5 14 9 11 15 -7 15 -8 0 -12 -5 -9 -10z"/>
<path d="M730 2440 c0 -5 -6 -10 -14 -10 -8 0 -18 -5 -22 -11 -5 -9 4 -10 32
-5 60 11 75 17 69 27 -8 12 -65 12 -65 -1z"/>
<path d="M2155 2370 c-12 -4 -27 -15 -34 -24 -7 -8 -28 -18 -47 -22 -25 -5
-34 -11 -34 -26 0 -18 2 -18 28 -5 15 7 49 25 76 38 67 33 76 66 11 39z"/>
<path d="M844 2359 c-3 -5 3 -9 13 -9 15 0 16 -2 3 -11 -12 -8 -10 -9 9 -7 14
2 26 8 28 14 5 14 -45 25 -53 13z"/>
<path d="M600 2356 c0 -2 7 -6 15 -10 8 -3 15 -1 15 4 0 6 -7 10 -15 10 -8 0
-15 -2 -15 -4z"/>
<path d="M700 2321 c-6 -12 -7 -21 -1 -21 10 0 24 30 17 37 -2 3 -9 -5 -16
-16z"/>
<path d="M740 2308 c-12 -22 -12 -22 6 -6 10 10 15 20 12 24 -4 3 -12 -5 -18
-18z"/>
<path d="M547 2299 c7 -7 15 -10 18 -7 3 3 -2 9 -12 12 -14 6 -15 5 -6 -5z"/>
<path d="M640 2281 c-8 -21 -17 -28 -28 -24 -13 5 -14 3 -6 -7 16 -16 57 -3
50 16 -4 9 2 14 15 14 23 0 21 23 -3 28 -9 2 -20 -9 -28 -27z"/>
<path d="M700 2280 c0 -5 5 -10 10 -10 6 0 10 5 10 10 0 6 -4 10 -10 10 -5 0
-10 -4 -10 -10z"/>
<path d="M2090 2270 c-14 -11 -35 -20 -48 -20 -12 0 -25 -7 -28 -15 -4 -8 -12
-15 -20 -15 -7 0 -26 -11 -41 -25 -15 -14 -38 -34 -50 -45 -13 -10 -23 -27
-23 -36 0 -12 12 -7 50 20 28 20 54 36 59 36 5 0 12 7 15 16 4 9 13 14 22 10
9 -3 12 -2 9 5 -4 6 2 13 14 16 12 3 21 9 21 14 0 4 14 16 30 26 17 9 30 21
30 25 0 13 -13 9 -40 -12z"/>
<path d="M535 2270 c3 -5 8 -10 11 -10 2 0 4 5 4 10 0 6 -5 10 -11 10 -5 0 -7
-4 -4 -10z"/>
<path d="M2154 2257 c-31 -32 -52 -47 -64 -47 -6 0 -8 -5 -5 -10 4 -7 12 -7
25 0 10 5 28 10 39 10 12 0 21 5 21 10 0 6 6 10 14 10 19 0 28 14 20 34 -8 22
-25 20 -50 -7z"/>
<path d="M880 2230 c-12 -8 -11 -10 8 -10 12 0 22 5 22 10 0 13 -11 13 -30 0z"/>
<path d="M579 2213 c-13 -16 -12 -17 4 -4 9 7 17 15 17 17 0 8 -8 3 -21 -13z"/>
<path d="M700 2210 c-19 -10 -38 -16 -41 -14 -4 2 -12 -3 -19 -11 -7 -8 -18
-15 -24 -16 -14 0 -60 -58 -52 -66 3 -3 14 1 24 10 10 10 26 17 34 17 9 0 21
6 27 14 6 7 24 16 39 20 15 3 37 20 50 36 27 34 15 37 -38 10z"/>
<path d="M2070 2152 c-8 -3 -27 -13 -41 -23 -14 -10 -28 -16 -31 -14 -3 3 -13
-4 -23 -15 -10 -11 -23 -20 -28 -20 -16 0 -72 -63 -60 -67 7 -3 30 8 52 22 22
15 44 24 49 21 5 -3 12 3 15 14 3 13 11 18 20 14 10 -3 25 8 42 31 29 37 30
46 5 37z"/>
<path d="M2164 2149 c-18 -5 -44 -25 -59 -44 l-27 -36 29 7 c15 3 35 8 44 10
8 2 24 -2 34 -10 16 -12 17 -16 6 -30 -7 -8 -29 -18 -48 -22 -19 -4 -30 -10
-24 -13 5 -4 -3 -12 -20 -20 -34 -15 -37 -27 -9 -36 23 -7 80 3 80 14 0 4 12
13 26 19 19 9 24 17 19 32 -4 12 -6 48 -6 80 0 33 -3 60 -7 59 -4 0 -21 -5
-38 -10z"/>
<path d="M895 2100 c-11 -5 -35 -22 -54 -38 -26 -22 -32 -34 -27 -48 7 -18 8
-18 24 2 9 11 34 32 55 48 50 36 51 58 2 36z"/>
<path d="M600 2042 c-19 -15 -21 -22 -12 -39 6 -11 8 -23 5 -27 -3 -3 9 -6 29
-6 21 0 41 7 51 18 22 24 21 32 -3 32 -13 0 -20 7 -20 20 0 25 -21 26 -50 2z"/>
<path d="M1005 2009 c-11 -17 1 -21 15 -4 8 9 8 15 2 15 -6 0 -14 -5 -17 -11z"/>
<path d="M2014 1998 c-3 -4 -22 -15 -42 -24 -43 -20 -102 -72 -102 -91 0 -21
17 -15 50 17 17 17 36 30 43 30 7 0 32 17 55 38 37 32 41 38 22 38 -12 0 -24
-4 -26 -8z"/>
<path d="M795 1990 c-3 -5 -1 -10 4 -10 6 0 11 5 11 10 0 6 -2 10 -4 10 -3 0
-8 -4 -11 -10z"/>
<path d="M845 1970 c3 -5 11 -10 16 -10 6 0 7 5 4 10 -3 6 -11 10 -16 10 -6 0
-7 -4 -4 -10z"/>
<path d="M899 1961 c-19 -10 -45 -22 -59 -26 -14 -4 -37 -19 -52 -33 -16 -14
-28 -22 -28 -17 0 4 -9 0 -19 -9 -11 -10 -27 -16 -37 -14 -21 4 -31 28 -12 28
14 0 47 31 63 58 8 15 -70 -21 -97 -45 -16 -14 -12 -21 45 -88 34 -40 69 -74
78 -74 9 -1 27 7 40 17 13 10 42 23 64 30 25 7 50 25 67 46 24 30 26 38 17 65
-11 32 -36 40 -57 19 -6 -6 -14 -9 -17 -6 -4 3 6 18 21 32 36 32 28 41 -17 17z"/>
<path d="M2160 1930 c-8 -5 -29 -10 -47 -10 -32 0 -96 -34 -186 -99 -46 -33
-63 -59 -31 -47 9 3 37 6 64 6 40 0 50 4 55 20 6 19 84 77 137 101 15 6 29 18
32 25 6 16 -3 18 -24 4z"/>
<path d="M2117 1813 c-43 -32 -46 -37 -30 -48 44 -29 52 -26 78 25 14 27 25
52 25 55 0 13 -29 1 -73 -32z"/>
<path d="M960 1831 c0 -5 5 -13 10 -16 6 -3 10 -2 10 4 0 5 -4 13 -10 16 -5 3
-10 2 -10 -4z"/>
<path d="M2190 1745 c0 -24 5 -35 15 -35 10 0 15 11 15 35 0 24 -5 35 -15 35
-10 0 -15 -11 -15 -35z"/>
<path d="M990 1742 c0 -5 -17 -17 -37 -26 -91 -41 -99 -50 -59 -66 21 -7 31
-2 75 38 53 49 61 62 36 62 -8 0 -15 -4 -15 -8z"/>
<path d="M1027 1622 c-36 -22 -31 -43 12 -55 30 -7 38 -5 59 17 21 21 23 27
12 40 -16 21 -48 20 -83 -2z"/>
<path d="M3580 3579 c-30 -4 -73 -11 -95 -15 -47 -7 -95 -48 -95 -81 0 -18 6
-23 25 -23 32 0 33 -23 1 -47 -16 -12 -25 -32 -29 -60 -5 -41 -4 -43 19 -37
31 8 31 -6 -1 -36 -33 -31 -36 -99 -5 -107 24 -6 25 -16 5 -33 -8 -7 -15 -28
-15 -46 0 -33 13 -41 53 -35 15 2 6 -31 -12 -47 -29 -26 -43 -78 -25 -93 13
-10 12 -14 -2 -30 -13 -15 -17 -43 -19 -144 l-2 -125 86 -2 c47 -2 111 -2 141
-1 64 3 241 38 273 54 36 19 127 100 127 113 0 7 14 34 32 60 26 40 29 51 20
67 -17 27 -16 32 18 74 25 31 30 47 30 90 0 50 -1 52 -25 47 -39 -7 -45 26
-10 54 22 17 26 27 21 48 -3 14 -13 26 -22 26 -21 0 -28 24 -14 50 15 28 4 58
-22 62 -18 2 -22 10 -23 38 0 34 -1 35 -37 32 -43 -3 -53 19 -18 38 30 16 24
34 -18 62 -58 39 -253 64 -362 47z"/>
<path d="M3960 3581 c0 -4 12 -16 28 -28 21 -15 33 -18 51 -11 15 5 21 12 15
18 -12 12 -94 30 -94 21z"/>
<path d="M2963 3573 c-27 -5 -28 -7 -6 -39 14 -22 21 -25 50 -19 39 7 46 -11
8 -21 -14 -3 -25 -13 -25 -21 0 -9 6 -13 15 -9 13 5 13 2 -1 -20 -21 -30 -12
-41 21 -26 30 14 32 4 6 -24 -21 -24 -41 -58 -41 -73 0 -33 96 7 160 67 25 23
49 42 54 42 9 0 35 30 36 42 0 4 -8 5 -17 2 -15 -5 -15 -3 2 11 11 9 30 14 42
12 12 -2 24 2 27 9 3 8 12 14 21 14 8 0 15 4 15 8 0 5 12 14 27 21 44 20 11
29 -104 30 -86 1 -107 -2 -123 -17 -10 -9 -32 -25 -49 -35 -27 -16 -31 -16
-31 -3 0 9 7 16 16 16 8 0 13 4 9 9 -3 6 3 14 12 20 14 8 4 10 -42 9 -33 0
-70 -3 -82 -5z m297 -32 c0 -14 -24 -31 -92 -65 -50 -26 -93 -45 -95 -42 -2 2
21 20 52 41 60 39 66 54 16 37 -18 -6 -31 -7 -31 -2 0 5 19 14 43 20 23 6 49
15 57 20 26 16 50 11 50 -9z"/>
<path d="M4099 3520 c-14 -11 -18 -19 -11 -20 15 0 72 28 72 35 0 13 -40 3
-61 -15z"/>
<path d="M4224 3505 c-3 -7 -30 -28 -60 -47 -56 -34 -66 -48 -36 -49 14 0 13
-3 -5 -16 -31 -21 -29 -43 2 -43 14 0 25 4 25 9 0 5 12 12 27 15 14 4 46 23
70 43 23 19 43 31 43 26 0 -13 -84 -93 -98 -93 -7 0 -12 -5 -12 -10 0 -6 -10
-15 -22 -21 -22 -9 -22 -9 2 -5 14 2 36 7 50 10 15 4 19 3 10 -1 -31 -16 -90
-68 -90 -80 0 -19 16 -16 58 11 20 14 50 28 65 32 16 3 34 15 40 25 7 11 21
19 32 19 11 0 27 4 35 10 12 7 11 10 -5 16 -16 7 -13 10 20 24 l39 17 -50 49
c-53 54 -130 86 -140 59z m11 -65 c-27 -12 -43 -12 -25 0 8 5 22 9 30 9 10 0
8 -3 -5 -9z m45 -110 c-20 -13 -33 -13 -25 0 3 6 14 10 23 10 15 0 15 -2 2
-10z"/>
<path d="M4125 3495 c-16 -7 -38 -16 -47 -19 -15 -5 -27 -46 -13 -46 12 0 55
24 55 32 0 4 7 8 15 8 8 0 15 5 15 10 0 6 7 10 16 10 8 0 12 5 9 10 -8 12 -13
12 -50 -5z"/>
<path d="M3270 3443 c-89 -50 -153 -100 -140 -108 14 -9 -4 -32 -33 -41 -41
-13 -107 -75 -107 -100 0 -22 3 -24 28 -18 15 4 45 22 68 41 23 18 46 33 52
33 6 0 15 6 19 13 4 7 22 22 39 33 97 60 150 104 126 104 -10 0 -96 -35 -125
-51 -11 -6 -21 -8 -25 -5 -3 3 10 12 29 20 19 8 38 18 42 23 5 4 12 8 16 8 4
0 26 9 49 19 32 15 42 25 42 43 0 12 -3 23 -7 23 -5 0 -37 -17 -73 -37z"/>
<path d="M4410 3349 c0 -5 -15 -16 -34 -24 -18 -8 -47 -25 -62 -38 -16 -14
-43 -28 -61 -31 -31 -7 -48 -29 -37 -48 3 -5 18 -7 33 -4 25 6 25 6 7 -9 -11
-8 -35 -15 -53 -15 -22 0 -36 -6 -43 -20 -11 -21 -18 -106 -8 -115 6 -6 59 15
68 27 3 4 28 23 55 43 35 25 51 31 57 22 4 -7 0 -19 -10 -28 -20 -20 -112 -69
-127 -69 -6 0 -17 -17 -24 -37 -7 -21 -23 -51 -36 -68 -24 -33 -38 -75 -25
-75 5 0 12 5 15 10 3 6 14 10 25 10 10 0 38 16 62 36 23 20 57 43 73 50 17 7
43 26 59 43 17 17 35 31 41 31 6 0 26 14 45 32 19 18 42 33 50 35 8 1 16 7 18
12 2 6 10 11 17 11 17 0 30 59 20 90 -8 26 -17 23 -107 -36 -38 -26 -72 -43
-76 -39 -7 6 72 84 119 117 19 12 21 19 12 28 -6 7 -9 19 -6 26 3 8 0 21 -7
29 -14 17 -60 20 -60 4z m0 -94 c-33 -19 -46 -19 -30 0 7 8 22 15 34 15 20 -1
20 -2 -4 -15z"/>
<path d="M3248 3293 c-35 -27 -80 -57 -100 -67 -21 -10 -35 -23 -32 -28 3 -5
11 -5 17 0 20 15 47 22 47 11 0 -5 -8 -12 -17 -16 -86 -28 -175 -87 -166 -109
3 -8 0 -20 -6 -28 -9 -10 -7 -17 5 -27 13 -11 17 -10 25 4 12 20 25 22 43 5
11 -10 7 -18 -22 -40 -19 -16 -38 -28 -42 -28 -15 0 -17 -70 -3 -82 11 -9 17
-6 29 11 9 12 35 31 59 42 25 12 64 38 88 59 24 21 69 50 100 63 55 25 90 63
69 76 -7 4 -8 12 -2 21 6 8 10 28 10 44 0 26 -2 28 -27 21 -15 -3 -31 -12 -35
-18 -4 -6 -10 -8 -14 -4 -9 9 15 37 31 37 7 0 19 8 26 17 12 15 12 16 -4 10
-32 -12 -67 -19 -67 -14 0 3 20 14 45 26 31 15 45 27 45 41 0 33 -34 24 -102
-27z m-8 -69 c0 -2 -9 -4 -21 -4 -11 0 -18 4 -14 10 5 8 35 3 35 -6z m15 -44
c-10 -16 -82 -60 -97 -60 -20 1 32 40 52 40 10 0 23 7 30 15 14 17 24 20 15 5z
m-150 -100 c3 -6 -4 -10 -17 -10 -18 0 -20 2 -8 10 19 12 18 12 25 0z m5 -40
c0 -5 -5 -10 -11 -10 -5 0 -7 5 -4 10 3 6 8 10 11 10 2 0 4 -4 4 -10z"/>
<path d="M3095 3320 c-3 -5 -2 -10 4 -10 5 0 13 5 16 10 3 6 2 10 -4 10 -5 0
-13 -4 -16 -10z"/>
<path d="M4480 3060 c-14 -11 -32 -20 -41 -20 -8 0 -25 -11 -38 -23 -19 -21
-20 -26 -7 -36 11 -10 16 -9 24 5 5 9 34 27 63 39 30 13 55 30 57 39 5 22 -27
20 -58 -4z"/>
<path d="M3305 3060 c-4 -6 -28 -20 -54 -31 -28 -13 -51 -31 -59 -47 -6 -14
-11 -27 -9 -28 1 -1 18 6 37 17 19 10 56 28 83 40 31 15 47 28 47 40 0 21 -34
27 -45 9z"/>
<path d="M3213 2950 c-51 -27 -112 -62 -137 -79 -24 -17 -55 -35 -69 -40 -18
-7 -26 -19 -31 -51 -3 -23 -4 -46 0 -51 3 -6 0 -24 -6 -40 -17 -41 -2 -56 37
-37 55 28 77 43 96 66 10 12 22 22 27 22 8 0 131 79 140 91 3 3 16 12 28 18
13 7 22 14 20 17 -7 7 -105 -35 -154 -66 -26 -16 -52 -30 -57 -30 -5 0 -22
-11 -39 -25 -16 -14 -33 -25 -38 -25 -17 0 -19 31 -2 46 38 35 163 123 182
129 11 4 31 16 43 28 12 12 38 34 57 49 57 45 9 33 -97 -22z"/>
<path d="M4468 2956 c-16 -5 -28 -13 -28 -18 0 -4 -29 -22 -65 -39 -53 -25
-63 -34 -54 -45 6 -8 20 -14 31 -14 10 0 22 -10 27 -22 8 -22 11 -21 56 27 79
85 94 134 33 111z"/>
<path d="M3305 2932 c-38 -22 -59 -41 -51 -49 9 -9 107 39 103 51 -5 16 -20
15 -52 -2z"/>
<path d="M4283 2903 c-35 -21 -63 -41 -63 -45 0 -4 23 6 50 22 28 17 54 30 59
30 4 0 16 7 27 15 40 30 -11 15 -73 -22z"/>
<path d="M4170 2843 c-27 -10 -81 -45 -77 -50 6 -5 107 45 107 52 0 6 -10 5
-30 -2z"/>
<path d="M3297 2815 c-15 -14 -35 -25 -43 -25 -8 0 -14 -4 -14 -10 0 -15 47
-12 80 5 18 9 30 24 30 35 0 27 -19 25 -53 -5z"/>
<path d="M4230 2786 c-77 -27 -136 -51 -170 -70 -14 -8 -45 -25 -70 -37 -41
-21 -43 -23 -20 -27 33 -5 131 16 150 34 9 7 42 25 75 40 69 31 115 61 115 75
0 12 -4 11 -80 -15z"/>
<path d="M3204 2754 c-17 -14 -17 -15 -1 -10 10 3 23 6 28 6 5 0 9 5 9 10 0
14 -13 12 -36 -6z"/>
<path d="M3245 2749 c-4 -5 -17 -14 -29 -19 -33 -12 -219 -135 -240 -159 -11
-12 -16 -27 -12 -37 5 -14 9 -14 25 -3 10 8 52 37 92 66 41 28 88 62 104 76
17 13 46 32 65 42 46 23 47 24 30 35 -20 13 -27 12 -35 -1z"/>
<path d="M3275 2700 c-16 -17 -39 -33 -51 -36 -13 -3 -25 -12 -28 -20 -7 -18
-10 -19 78 21 46 21 76 40 76 50 0 26 -44 17 -75 -15z"/>
<path d="M3210 2606 c-75 -40 -231 -143 -247 -164 -7 -9 -13 -24 -13 -33 0
-16 6 -15 51 8 28 15 66 41 84 57 18 17 49 45 69 61 83 68 101 84 91 85 -5 0
-21 -6 -35 -14z"/>
<path d="M3286 2589 c-36 -27 -37 -29 -14 -29 25 0 76 44 61 53 -4 2 -26 -9
-47 -24z"/>
<path d="M4027 2533 c-14 -13 -7 -33 11 -33 19 0 42 18 42 32 0 10 -44 11 -53
1z"/>
<path d="M3298 2523 c-16 -2 -28 -10 -28 -18 0 -8 -9 -16 -19 -20 -10 -3 -21
-14 -24 -25 -3 -11 -13 -23 -24 -26 -27 -10 -53 -35 -53 -51 0 -11 12 -8 48
13 26 15 62 35 80 45 50 26 62 39 62 65 0 13 -3 23 -7 23 -5 -1 -20 -4 -35 -6z"/>
<path d="M3225 2510 c-3 -5 -1 -10 4 -10 6 0 11 5 11 10 0 6 -2 10 -4 10 -3 0
-8 -4 -11 -10z"/>
<path d="M4095 2506 c-48 -21 -60 -41 -41 -68 9 -12 16 -31 16 -41 0 -17 5
-19 33 -13 17 4 43 18 57 31 23 24 23 25 4 25 -11 0 -26 -6 -33 -12 -10 -11
-11 -10 -6 5 4 9 13 17 21 17 7 0 24 5 38 12 20 9 23 14 15 25 -13 15 -55 18
-64 3 -3 -5 -15 -15 -25 -20 -16 -8 -18 -8 -14 5 4 8 12 15 20 15 8 0 14 7 14
15 0 8 -1 15 -2 15 -2 -1 -17 -7 -33 -14z"/>
<path d="M3083 2424 c-98 -65 -143 -108 -143 -139 0 -8 20 -6 33 5 7 5 33 27
58 47 26 21 75 60 110 87 35 28 68 53 72 57 5 3 2 9 -5 11 -7 3 -64 -28 -125
-68z"/>
<path d="M3235 2394 c-27 -13 -61 -35 -75 -49 -14 -13 -46 -33 -72 -45 -26
-11 -65 -36 -85 -55 -21 -19 -41 -35 -45 -35 -5 0 -8 -13 -8 -30 0 -37 13 -38
56 -5 18 14 37 25 43 25 6 0 11 4 11 8 0 5 49 47 109 93 98 76 144 120 124
118 -5 0 -30 -11 -58 -25z"/>
<path d="M4208 2413 c-29 -5 -113 -79 -99 -88 5 -3 22 1 38 9 15 8 49 23 76
35 26 11 47 27 47 36 0 15 -9 16 -62 8z"/>
<path d="M3320 2385 c0 -8 -6 -15 -12 -15 -17 -1 -68 -46 -68 -60 0 -13 17
-13 25 0 8 13 25 13 25 0 0 -6 -11 -15 -24 -20 -13 -5 -27 -14 -31 -20 -3 -5
-21 -17 -38 -25 -39 -18 -60 -32 -165 -110 -82 -60 -94 -81 -72 -115 8 -12 16
-9 46 23 19 20 41 37 49 37 7 0 15 6 18 14 3 7 25 28 49 44 119 85 161 112
174 112 8 0 14 6 14 14 0 7 7 19 15 26 21 18 19 30 -7 31 l-23 0 23 11 c15 8
22 20 22 40 0 15 -4 28 -10 28 -5 0 -10 -7 -10 -15z"/>
<path d="M4285 2370 c-3 -5 -1 -10 4 -10 6 0 11 5 11 10 0 6 -2 10 -4 10 -3 0
-8 -4 -11 -10z"/>
<path d="M3065 2340 c3 -5 13 -10 21 -10 8 0 14 5 14 10 0 6 -9 10 -21 10 -11
0 -17 -4 -14 -10z"/>
<path d="M4220 2343 c-14 -3 -32 -11 -40 -18 -8 -7 -34 -22 -57 -34 -23 -12
-47 -30 -53 -40 -23 -44 -9 -41 69 12 35 23 74 48 87 55 13 7 24 17 24 23 0 5
-1 8 -2 8 -2 -1 -14 -4 -28 -6z"/>
<path d="M4305 2320 c-3 -5 1 -10 9 -10 9 0 16 5 16 10 0 6 -4 10 -9 10 -6 0
-13 -4 -16 -10z"/>
<path d="M4235 2243 c-11 -3 -29 -13 -40 -23 -11 -10 -36 -25 -55 -35 -63 -31
-90 -65 -52 -65 10 0 31 14 47 30 16 17 34 30 40 30 6 0 29 16 51 35 21 19 37
34 34 34 -3 -1 -14 -3 -25 -6z"/>
<path d="M4300 2220 c-25 -16 -53 -36 -64 -42 -27 -19 -70 -58 -62 -58 3 0 27
10 54 23 26 12 66 29 90 36 36 12 42 18 42 43 0 35 -4 35 -60 -2z"/>
<path d="M3290 2223 c-19 -9 -30 -18 -24 -20 16 -5 64 15 64 27 0 5 -1 10 -2
9 -2 0 -19 -8 -38 -16z"/>
<path d="M4279 2134 c-13 -7 -31 -13 -40 -14 -8 0 -33 -13 -55 -30 -21 -16
-44 -30 -50 -30 -5 0 -23 -14 -39 -30 l-29 -30 13 -68 c7 -37 16 -86 19 -109
l7 -41 27 23 c15 13 30 38 34 60 3 20 18 50 32 67 22 26 23 29 6 20 -11 -6
-26 -18 -34 -26 -18 -22 -43 -20 -59 6 -12 20 -11 24 13 45 15 13 34 23 42 23
8 0 14 7 14 16 0 9 8 18 19 21 10 2 28 18 40 34 12 16 30 29 40 29 25 0 57 36
38 43 -7 3 -24 -1 -38 -9z"/>
<path d="M3166 2096 c-26 -17 -67 -46 -90 -63 -22 -18 -56 -40 -73 -50 -27
-14 -33 -23 -33 -50 0 -40 3 -40 38 -8 15 14 36 25 47 25 17 0 18 2 5 10 -13
9 -13 12 3 21 22 13 167 139 167 145 0 9 -16 1 -64 -30z"/>
<path d="M3247 2095 c-24 -21 -26 -26 -12 -31 11 -5 28 4 48 25 27 27 29 31
12 31 -11 0 -33 -12 -48 -25z"/>
<path d="M4341 2103 c-7 -3 -22 -14 -32 -24 -11 -11 -25 -19 -33 -19 -16 0
-41 -28 -33 -36 3 -3 20 1 37 9 50 26 91 -7 47 -38 -26 -18 -18 -20 18 -3 22
10 25 17 25 65 0 53 -2 56 -29 46z"/>
<path d="M3268 2020 c-25 -22 -51 -40 -57 -40 -6 0 -11 -6 -11 -14 0 -8 -6
-17 -12 -19 -9 -4 -8 -6 2 -6 9 -1 21 4 28 11 6 6 15 8 19 4 11 -10 -32 -43
-96 -72 -79 -37 -191 -132 -191 -163 0 -28 -44 -97 -72 -112 -29 -16 -11 -30
35 -27 23 1 92 -4 152 -11 146 -18 177 -12 194 37 8 20 25 53 37 72 30 44 30
50 -3 50 -21 0 -24 -3 -14 -9 12 -8 8 -11 -15 -17 -29 -7 -77 -38 -124 -80
-24 -21 -80 -43 -80 -31 0 23 30 59 81 96 32 25 59 48 59 52 0 4 29 28 65 54
36 25 65 51 65 56 0 6 -3 9 -7 7 -65 -29 -103 -50 -108 -58 -3 -5 -14 -10 -25
-10 -10 0 -20 -7 -24 -15 -3 -8 -14 -15 -24 -15 -10 0 -27 -10 -38 -21 -35
-39 -136 -101 -147 -90 -14 14 5 34 66 70 29 16 69 45 91 65 21 20 41 36 45
36 4 0 36 29 71 65 43 43 59 65 47 65 -28 0 -19 17 21 38 26 13 37 25 37 42 0
36 -18 34 -67 -10z"/>
<path d="M4316 1922 c-14 -13 -4 -22 24 -22 17 0 30 5 30 10 0 6 -3 10 -7 11
-5 0 -16 2 -25 4 -9 2 -19 0 -22 -3z"/>
<path d="M3293 1894 l-28 -25 25 7 c29 7 50 23 50 35 0 16 -18 9 -47 -17z"/>
<path d="M4300 1855 c-7 -8 -17 -15 -22 -15 -6 0 -32 -16 -58 -35 -26 -19 -54
-35 -63 -35 -8 0 -20 -7 -27 -15 -11 -13 -11 -20 0 -40 16 -30 44 -25 72 10
15 19 95 65 113 65 11 0 4 -20 -7 -20 -7 0 -21 -12 -31 -25 l-18 -25 26 10
c36 14 29 -10 -10 -30 -37 -20 -75 -55 -75 -69 0 -17 13 -13 61 19 71 48 106
80 91 87 -16 6 3 33 24 33 9 0 14 11 14 30 0 32 -9 37 -27 19 -7 -7 -20 -9
-29 -5 -16 6 -15 10 11 31 l28 25 -30 0 c-17 0 -36 -7 -43 -15z"/>
<path d="M3295 1779 c-43 -21 -61 -36 -54 -44 9 -8 88 29 94 44 8 21 3 21 -40
0z"/>
<path d="M4369 1684 c-11 -14 -9 -15 16 -12 16 1 30 9 33 16 6 18 -33 15 -49
-4z"/>
<path d="M3327 1673 c-12 -3 -16 -10 -13 -20 4 -9 1 -22 -6 -31 -11 -13 -10
-14 9 -8 13 4 31 3 40 -3 16 -9 16 -10 2 -11 -9 0 -22 -6 -28 -14 -18 -21 3
-29 56 -21 37 5 42 9 30 18 -8 7 -27 31 -41 55 -14 23 -27 41 -29 41 -1 -1
-10 -3 -20 -6z"/>
<path d="M4411 1650 c-12 -11 -27 -17 -33 -14 -5 3 -20 -6 -34 -20 -15 -14
-35 -28 -46 -32 -31 -9 -17 -37 25 -47 48 -12 70 -3 62 23 -5 14 -2 20 9 20 9
0 16 6 16 13 0 7 9 20 20 30 19 16 28 47 13 47 -5 -1 -19 -9 -32 -20z"/>
</g>
</svg>
