<?xml version="1.0" encoding="UTF-8"?>
<!DOCTYPE svg PUBLIC "-//W3C//DTD SVG 1.1//EN" "http://www.w3.org/Graphics/SVG/1.1/DTD/svg11.dtd">
<svg xmlns="http://www.w3.org/2000/svg" version="1.1" width="512px" height="512px" style="shape-rendering:geometricPrecision; text-rendering:geometricPrecision; image-rendering:optimizeQuality; fill-rule:evenodd; clip-rule:evenodd" xmlns:xlink="http://www.w3.org/1999/xlink">
<g><path style="opacity:0.999" fill="#111827" d="M 40.5,-0.5 C 183.833,-0.5 327.167,-0.5 470.5,-0.5C 491.833,5.5 505.5,19.1667 511.5,40.5C 511.5,183.833 511.5,327.167 511.5,470.5C 505.5,491.833 491.833,505.5 470.5,511.5C 327.167,511.5 183.833,511.5 40.5,511.5C 19.1667,505.5 5.5,491.833 -0.5,470.5C -0.5,327.167 -0.5,183.833 -0.5,40.5C 5.5,19.1667 19.1667,5.5 40.5,-0.5 Z"/></g>
<g><path style="opacity:1" fill="#fafafa" d="M 150.5,266.5 C 143.352,265.508 136.019,265.175 128.5,265.5C 128.5,261.833 128.5,258.167 128.5,254.5C 164.167,254.5 199.833,254.5 235.5,254.5C 235.5,258.167 235.5,261.833 235.5,265.5C 228.833,265.5 222.167,265.5 215.5,265.5C 215.5,301.167 215.5,336.833 215.5,372.5C 203.162,372.667 190.829,372.5 178.5,372C 171.652,364.985 164.652,358.152 157.5,351.5C 150.348,358.152 143.348,364.985 136.5,372C 109.833,372.667 83.1667,372.667 56.5,372C 47,362.5 37.5,353 28,343.5C 27.3333,285.833 27.3333,228.167 28,170.5C 37.1667,161.333 46.3333,152.167 55.5,143C 95.1667,142.333 134.833,142.333 174.5,143C 180.667,149.167 186.833,155.333 193,161.5C 193.5,154.174 193.666,146.841 193.5,139.5C 197.833,139.5 202.167,139.5 206.5,139.5C 206.5,163.5 206.5,187.5 206.5,211.5C 202.167,211.5 197.833,211.5 193.5,211.5C 193.667,200.828 193.5,190.161 193,179.5C 184.5,171 176,162.5 167.5,154C 142.836,153.5 118.169,153.333 93.5,153.5C 93.5,222.5 93.5,291.5 93.5,360.5C 105.838,360.667 118.171,360.5 130.5,360C 137,353.5 143.5,347 150,340.5C 150.5,315.836 150.667,291.169 150.5,266.5 Z"/></g>
<g><path style="opacity:1" fill="#f8f8f8" d="M 395.5,348.5 C 395.5,319.833 395.5,291.167 395.5,262.5C 379.658,262.17 363.991,262.504 348.5,263.5C 348.5,295.833 348.5,328.167 348.5,360.5C 356.167,360.5 363.833,360.5 371.5,360.5C 371.5,364.5 371.5,368.5 371.5,372.5C 334.167,372.5 296.833,372.5 259.5,372.5C 259.5,368.833 259.5,365.167 259.5,361.5C 267.019,361.825 274.352,361.492 281.5,360.5C 281.5,291.5 281.5,222.5 281.5,153.5C 273.833,153.5 266.167,153.5 258.5,153.5C 258.5,149.833 258.5,146.167 258.5,142.5C 317.501,142.333 376.501,142.5 435.5,143C 444,151.5 452.5,160 461,168.5C 461.667,190.167 461.667,211.833 461,233.5C 453.167,241.333 445.333,249.167 437.5,257C 445.333,264.833 453.167,272.667 461,280.5C 461.5,307.165 461.667,333.831 461.5,360.5C 469.167,360.5 476.833,360.5 484.5,360.5C 484.5,364.5 484.5,368.5 484.5,372.5C 462.497,372.667 440.497,372.5 418.5,372C 410.631,364.298 402.964,356.465 395.5,348.5 Z"/></g>
<g><path style="opacity:1" fill="#000000" d="M 62.5,154.5 C 68.1667,154.5 73.8333,154.5 79.5,154.5C 79.5,223.167 79.5,291.833 79.5,360.5C 73.8333,360.5 68.1667,360.5 62.5,360.5C 55.5359,353.035 48.3692,345.702 41,338.5C 40.3333,284.167 40.3333,229.833 41,175.5C 48.0351,168.297 55.2018,161.297 62.5,154.5 Z"/></g>
<g><path style="opacity:1" fill="#262626" d="M 62.5,154.5 C 68.31,153.51 74.31,153.177 80.5,153.5C 80.5,222.833 80.5,292.167 80.5,361.5C 74.31,361.823 68.31,361.49 62.5,360.5C 68.1667,360.5 73.8333,360.5 79.5,360.5C 79.5,291.833 79.5,223.167 79.5,154.5C 73.8333,154.5 68.1667,154.5 62.5,154.5 Z"/></g>
<g><path style="opacity:1" fill="#000000" d="M 334.5,153.5 C 334.5,222.5 334.5,291.5 334.5,360.5C 321.5,360.5 308.5,360.5 295.5,360.5C 295.5,291.5 295.5,222.5 295.5,153.5C 308.5,153.5 321.5,153.5 334.5,153.5 Z"/></g>
<g><path style="opacity:1" fill="#030303" d="M 348.5,153.5 C 364.167,153.5 379.833,153.5 395.5,153.5C 395.5,186.167 395.5,218.833 395.5,251.5C 379.833,251.5 364.167,251.5 348.5,251.5C 348.5,218.833 348.5,186.167 348.5,153.5 Z"/></g>
<g><path style="opacity:1" fill="#000000" d="M 408.5,153.5 C 415.175,153.334 421.842,153.5 428.5,154C 435,160.5 441.5,167 448,173.5C 448.667,191.833 448.667,210.167 448,228.5C 440.5,236 433,243.5 425.5,251C 419.843,251.499 414.176,251.666 408.5,251.5C 408.5,218.833 408.5,186.167 408.5,153.5 Z"/></g>
<g><path style="opacity:1" fill="#676767" d="M 348.5,263.5 C 363.991,262.504 379.658,262.17 395.5,262.5C 395.5,291.167 395.5,319.833 395.5,348.5C 394.502,320.338 394.169,292.005 394.5,263.5C 379.167,263.5 363.833,263.5 348.5,263.5 Z"/></g>
<g><path style="opacity:1" fill="#000000" d="M 408.5,263.5 C 414.509,263.334 420.509,263.501 426.5,264C 433.667,271.167 440.833,278.333 448,285.5C 448.5,310.498 448.667,335.498 448.5,360.5C 440.493,360.666 432.493,360.5 424.5,360C 419.333,354.833 414.167,349.667 409,344.5C 408.5,317.502 408.333,290.502 408.5,263.5 Z"/></g>
<g><path style="opacity:1" fill="#858585" d="M 128.5,254.5 C 128.5,258.167 128.5,261.833 128.5,265.5C 136.019,265.175 143.352,265.508 150.5,266.5C 142.833,266.5 135.167,266.5 127.5,266.5C 127.183,262.298 127.517,258.298 128.5,254.5 Z"/></g>
<g><path style="opacity:1" fill="#676767" d="M 202.5,266.5 C 189.833,266.5 177.167,266.5 164.5,266.5C 164.5,290.833 164.5,315.167 164.5,339.5C 163.502,315.006 163.169,290.339 163.5,265.5C 176.677,265.171 189.677,265.505 202.5,266.5 Z"/></g>
<g><path style="opacity:1" fill="#000000" d="M 202.5,266.5 C 202.5,297.833 202.5,329.167 202.5,360.5C 196.491,360.666 190.491,360.499 184.5,360C 177.631,353.298 170.964,346.465 164.5,339.5C 164.5,315.167 164.5,290.833 164.5,266.5C 177.167,266.5 189.833,266.5 202.5,266.5 Z"/></g>
<g><path style="opacity:1" fill="#484848" d="M 235.5,265.5 C 229.355,266.49 223.022,266.823 216.5,266.5C 216.832,302.004 216.498,337.337 215.5,372.5C 215.5,336.833 215.5,301.167 215.5,265.5C 222.167,265.5 228.833,265.5 235.5,265.5 Z"/></g>
<g><path style="opacity:1" fill="#7d7d7d" d="M 281.5,360.5 C 274.352,361.492 267.019,361.825 259.5,361.5C 259.5,365.167 259.5,368.833 259.5,372.5C 258.517,368.702 258.183,364.702 258.5,360.5C 266.167,360.5 273.833,360.5 281.5,360.5 Z"/></g>
<g><path style="opacity:1" fill="#626262" d="M 334.5,153.5 C 335.499,222.665 335.833,291.998 335.5,361.5C 321.99,361.829 308.656,361.496 295.5,360.5C 308.5,360.5 321.5,360.5 334.5,360.5C 334.5,291.5 334.5,222.5 334.5,153.5 Z"/></g>
</svg>
