<svg id="visual" viewBox="0 0 1080 320" width="1080" height="320" xmlns="http://www.w3.org/2000/svg" xmlns:xlink="http://www.w3.org/1999/xlink" version="1.1"><rect x="0" y="0" width="1080" height="320" fill="#f9fafb"></rect><path d="M0 188L154 136L309 164L463 144L617 193L771 152L926 153L1080 176L1080 321L926 321L771 321L617 321L463 321L309 321L154 321L0 321Z" fill="#df6ab2"></path><path d="M0 172L154 164L309 184L463 167L617 188L771 170L926 166L1080 206L1080 321L926 321L771 321L617 321L463 321L309 321L154 321L0 321Z" fill="#b25fa4"></path><path d="M0 195L154 234L309 190L463 215L617 187L771 210L926 194L1080 223L1080 321L926 321L771 321L617 321L463 321L309 321L154 321L0 321Z" fill="#885391"></path><path d="M0 240L154 225L309 247L463 231L617 216L771 235L926 206L1080 218L1080 321L926 321L771 321L617 321L463 321L309 321L154 321L0 321Z" fill="#61467a"></path><path d="M0 235L154 235L309 251L463 236L617 251L771 243L926 258L1080 260L1080 321L926 321L771 321L617 321L463 321L309 321L154 321L0 321Z" fill="#3f3860"></path><path d="M0 278L154 270L309 258L463 276L617 279L771 269L926 279L1080 286L1080 321L926 321L771 321L617 321L463 321L309 321L154 321L0 321Z" fill="#242843"></path><path d="M0 298L154 293L309 286L463 289L617 281L771 280L926 302L1080 295L1080 321L926 321L771 321L617 321L463 321L309 321L154 321L0 321Z" fill="#111827"></path></svg>