<svg id="visual" viewBox="0 0 1080 600" width="1080" height="600" xmlns="http://www.w3.org/2000/svg" xmlns:xlink="http://www.w3.org/1999/xlink" version="1.1"><rect x="0" y="0" width="1080" height="600" fill="#ffddde"></rect><path d="M0 415L154 428L309 445L463 350L617 356L771 392L926 404L1080 440L1080 601L926 601L771 601L617 601L463 601L309 601L154 601L0 601Z" fill="#df6ab2"></path><path d="M0 457L154 406L309 453L463 452L617 433L771 401L926 421L1080 423L1080 601L926 601L771 601L617 601L463 601L309 601L154 601L0 601Z" fill="#9d599b"></path><path d="M0 440L154 472L309 450L463 451L617 464L771 510L926 451L1080 485L1080 601L926 601L771 601L617 601L463 601L309 601L154 601L0 601Z" fill="#61467a"></path><path d="M0 501L154 509L309 535L463 532L617 502L771 491L926 529L1080 522L1080 601L926 601L771 601L617 601L463 601L309 601L154 601L0 601Z" fill="#313052"></path><path d="M0 544L154 571L309 542L463 570L617 543L771 570L926 555L1080 529L1080 601L926 601L771 601L617 601L463 601L309 601L154 601L0 601Z" fill="#111827"></path></svg>