<svg id="visual" viewBox="0 0 900 600" width="900" height="600" xmlns="http://www.w3.org/2000/svg" xmlns:xlink="http://www.w3.org/1999/xlink" version="1.1"><rect x="0" y="0" width="900" height="600" fill="#ffddde"></rect><path d="M0 357L129 393L257 442L386 350L514 369L643 365L771 399L900 405L900 601L771 601L643 601L514 601L386 601L257 601L129 601L0 601Z" fill="#df6ab2"></path><path d="M0 449L129 463L257 406L386 458L514 468L643 444L771 466L900 467L900 601L771 601L643 601L514 601L386 601L257 601L129 601L0 601Z" fill="#9d599b"></path><path d="M0 456L129 440L257 488L386 446L514 467L643 443L771 498L900 443L900 601L771 601L643 601L514 601L386 601L257 601L129 601L0 601Z" fill="#61467a"></path><path d="M0 505L129 502L257 542L386 538L514 507L643 487L771 499L900 494L900 601L771 601L643 601L514 601L386 601L257 601L129 601L0 601Z" fill="#313052"></path><path d="M0 541L129 542L257 551L386 542L514 527L643 527L771 555L900 525L900 601L771 601L643 601L514 601L386 601L257 601L129 601L0 601Z" fill="#111827"></path></svg>