<svg id="visual" viewBox="0 0 1080 320" width="1080" height="320" xmlns="http://www.w3.org/2000/svg" xmlns:xlink="http://www.w3.org/1999/xlink" version="1.1"><rect x="0" y="0" width="1080" height="320" fill="#ffddde"></rect><path d="M0 221L154 228L309 237L463 186L617 190L771 208L926 215L1080 234L1080 321L926 321L771 321L617 321L463 321L309 321L154 321L0 321Z" fill="#df6ab2"></path><path d="M0 243L154 216L309 241L463 240L617 230L771 213L926 224L1080 225L1080 321L926 321L771 321L617 321L463 321L309 321L154 321L0 321Z" fill="#9d599b"></path><path d="M0 234L154 251L309 239L463 240L617 247L771 271L926 240L1080 258L1080 321L926 321L771 321L617 321L463 321L309 321L154 321L0 321Z" fill="#61467a"></path><path d="M0 267L154 271L309 285L463 283L617 267L771 261L926 282L1080 278L1080 321L926 321L771 321L617 321L463 321L309 321L154 321L0 321Z" fill="#313052"></path><path d="M0 290L154 304L309 288L463 304L617 289L771 303L926 296L1080 282L1080 321L926 321L771 321L617 321L463 321L309 321L154 321L0 321Z" fill="#111827"></path></svg>