<svg id="visual" viewBox="0 0 1920 1080" width="1920" height="1080" xmlns="http://www.w3.org/2000/svg" xmlns:xlink="http://www.w3.org/1999/xlink" version="1.1"><path d="M0 77L32 75.2C64 73.3 128 69.7 192 58.8C256 48 320 30 384 24.5C448 19 512 26 576 44C640 62 704 91 768 103.7C832 116.3 896 112.7 960 110.8C1024 109 1088 109 1152 105.3C1216 101.7 1280 94.3 1344 94.3C1408 94.3 1472 101.7 1536 91C1600 80.3 1664 51.7 1728 40.8C1792 30 1856 37 1888 40.5L1920 44L1920 0L1888 0C1856 0 1792 0 1728 0C1664 0 1600 0 1536 0C1472 0 1408 0 1344 0C1280 0 1216 0 1152 0C1088 0 1024 0 960 0C896 0 832 0 768 0C704 0 640 0 576 0C512 0 448 0 384 0C320 0 256 0 192 0C128 0 64 0 32 0L0 0Z" fill="#f5f5fa"></path><path d="M0 239L32 251.5C64 264 128 289 192 287.2C256 285.3 320 256.7 384 258.5C448 260.3 512 292.7 576 323.2C640 353.7 704 382.3 768 404C832 425.7 896 440.3 960 449.3C1024 458.3 1088 461.7 1152 456.2C1216 450.7 1280 436.3 1344 413C1408 389.7 1472 357.3 1536 335.8C1600 314.3 1664 303.7 1728 292.8C1792 282 1856 271 1888 265.5L1920 260L1920 42L1888 38.5C1856 35 1792 28 1728 38.8C1664 49.7 1600 78.3 1536 89C1472 99.7 1408 92.3 1344 92.3C1280 92.3 1216 99.7 1152 103.3C1088 107 1024 107 960 108.8C896 110.7 832 114.3 768 101.7C704 89 640 60 576 42C512 24 448 17 384 22.5C320 28 256 46 192 56.8C128 67.7 64 71.3 32 73.2L0 75Z" fill="#e1e0f4"></path><path d="M0 476L32 490.5C64 505 128 534 192 517.8C256 501.7 320 440.3 384 425.8C448 411.3 512 443.7 576 459.8C640 476 704 476 768 483.2C832 490.3 896 504.7 960 517.3C1024 530 1088 541 1152 550C1216 559 1280 566 1344 548C1408 530 1472 487 1536 452.8C1600 418.7 1664 393.3 1728 398.7C1792 404 1856 440 1888 458L1920 476L1920 258L1888 263.5C1856 269 1792 280 1728 290.8C1664 301.7 1600 312.3 1536 333.8C1472 355.3 1408 387.7 1344 411C1280 434.3 1216 448.7 1152 454.2C1088 459.7 1024 456.3 960 447.3C896 438.3 832 423.7 768 402C704 380.3 640 351.7 576 321.2C512 290.7 448 258.3 384 256.5C320 254.7 256 283.3 192 285.2C128 287 64 262 32 249.5L0 237Z" fill="#cdcbed"></path><path d="M0 573L32 585.7C64 598.3 128 623.7 192 602.2C256 580.7 320 512.3 384 501.5C448 490.7 512 537.3 576 551.7C640 566 704 548 768 542.7C832 537.3 896 544.7 960 564.5C1024 584.3 1088 616.7 1152 629.2C1216 641.7 1280 634.3 1344 611C1408 587.7 1472 548.3 1536 528.7C1600 509 1664 509 1728 521.5C1792 534 1856 559 1888 571.5L1920 584L1920 474L1888 456C1856 438 1792 402 1728 396.7C1664 391.3 1600 416.7 1536 450.8C1472 485 1408 528 1344 546C1280 564 1216 557 1152 548C1088 539 1024 528 960 515.3C896 502.7 832 488.3 768 481.2C704 474 640 474 576 457.8C512 441.7 448 409.3 384 423.8C320 438.3 256 499.7 192 515.8C128 532 64 503 32 488.5L0 474Z" fill="#bbb7e6"></path><path d="M0 800L32 801.8C64 803.7 128 807.3 192 780.3C256 753.3 320 695.7 384 668.7C448 641.7 512 645.3 576 654.3C640 663.3 704 677.7 768 710C832 742.3 896 792.7 960 812.5C1024 832.3 1088 821.7 1152 820C1216 818.3 1280 825.7 1344 822C1408 818.3 1472 803.7 1536 791C1600 778.3 1664 767.7 1728 784C1792 800.3 1856 843.7 1888 865.3L1920 887L1920 582L1888 569.5C1856 557 1792 532 1728 519.5C1664 507 1600 507 1536 526.7C1472 546.3 1408 585.7 1344 609C1280 632.3 1216 639.7 1152 627.2C1088 614.7 1024 582.3 960 562.5C896 542.7 832 535.3 768 540.7C704 546 640 564 576 549.7C512 535.3 448 488.7 384 499.5C320 510.3 256 578.7 192 600.2C128 621.7 64 596.3 32 583.7L0 571Z" fill="#a9a2de"></path><path d="M0 854L32 861.2C64 868.3 128 882.7 192 868.3C256 854 320 811 384 787.7C448 764.3 512 760.7 576 764.2C640 767.7 704 778.3 768 807.2C832 836 896 883 960 906.5C1024 930 1088 930 1152 930C1216 930 1280 930 1344 926.3C1408 922.7 1472 915.3 1536 904.5C1600 893.7 1664 879.3 1728 883C1792 886.7 1856 908.3 1888 919.2L1920 930L1920 885L1888 863.3C1856 841.7 1792 798.3 1728 782C1664 765.7 1600 776.3 1536 789C1472 801.7 1408 816.3 1344 820C1280 823.7 1216 816.3 1152 818C1088 819.7 1024 830.3 960 810.5C896 790.7 832 740.3 768 708C704 675.7 640 661.3 576 652.3C512 643.3 448 639.7 384 666.7C320 693.7 256 751.3 192 778.3C128 805.3 64 801.7 32 799.8L0 798Z" fill="#988ed6"></path><path d="M0 930L32 930C64 930 128 930 192 919.2C256 908.3 320 886.7 384 881.2C448 875.7 512 886.3 576 902.5C640 918.7 704 940.3 768 953C832 965.7 896 969.3 960 967.5C1024 965.7 1088 958.3 1152 967.3C1216 976.3 1280 1001.7 1344 1003.5C1408 1005.3 1472 983.7 1536 981.8C1600 980 1664 998 1728 1007C1792 1016 1856 1016 1888 1016L1920 1016L1920 928L1888 917.2C1856 906.3 1792 884.7 1728 881C1664 877.3 1600 891.7 1536 902.5C1472 913.3 1408 920.7 1344 924.3C1280 928 1216 928 1152 928C1088 928 1024 928 960 904.5C896 881 832 834 768 805.2C704 776.3 640 765.7 576 762.2C512 758.7 448 762.3 384 785.7C320 809 256 852 192 866.3C128 880.7 64 866.3 32 859.2L0 852Z" fill="#8879cd"></path><path d="M0 995L32 1000.3C64 1005.7 128 1016.3 192 1010.8C256 1005.3 320 983.7 384 971C448 958.3 512 954.7 576 956.5C640 958.3 704 965.7 768 974.7C832 983.7 896 994.3 960 996.2C1024 998 1088 991 1152 1000C1216 1009 1280 1034 1344 1032.2C1408 1030.3 1472 1001.7 1536 998.2C1600 994.7 1664 1016.3 1728 1025.3C1792 1034.3 1856 1030.7 1888 1028.8L1920 1027L1920 1014L1888 1014C1856 1014 1792 1014 1728 1005C1664 996 1600 978 1536 979.8C1472 981.7 1408 1003.3 1344 1001.5C1280 999.7 1216 974.3 1152 965.3C1088 956.3 1024 963.7 960 965.5C896 967.3 832 963.7 768 951C704 938.3 640 916.7 576 900.5C512 884.3 448 873.7 384 879.2C320 884.7 256 906.3 192 917.2C128 928 64 928 32 928L0 928Z" fill="#7865c4"></path><path d="M0 1081L32 1081C64 1081 128 1081 192 1081C256 1081 320 1081 384 1081C448 1081 512 1081 576 1081C640 1081 704 1081 768 1081C832 1081 896 1081 960 1081C1024 1081 1088 1081 1152 1081C1216 1081 1280 1081 1344 1081C1408 1081 1472 1081 1536 1081C1600 1081 1664 1081 1728 1081C1792 1081 1856 1081 1888 1081L1920 1081L1920 1025L1888 1026.8C1856 1028.7 1792 1032.3 1728 1023.3C1664 1014.3 1600 992.7 1536 996.2C1472 999.7 1408 1028.3 1344 1030.2C1280 1032 1216 1007 1152 998C1088 989 1024 996 960 994.2C896 992.3 832 981.7 768 972.7C704 963.7 640 956.3 576 954.5C512 952.7 448 956.3 384 969C320 981.7 256 1003.3 192 1008.8C128 1014.3 64 1003.7 32 998.3L0 993Z" fill="#6950ba"></path></svg>